<?xml version="1.0" encoding="UTF-8"?>
<svg id="_レイヤー_2" data-name="レイヤー 2" xmlns="http://www.w3.org/2000/svg" width="55" height="29.5" viewBox="0 0 55 29.5">
  <g id="_レイアウト" data-name="レイアウト">
    <g>
      <path d="M53,29c-.4,0-.78-.16-1.06-.44L27.5,4.12,3.06,28.56c-.28,.28-.66,.44-1.06,.44s-.78-.16-1.06-.44-.44-.66-.44-1.06,.16-.78,.44-1.06L26.44,.94c.28-.28,.66-.44,1.06-.44s.78,.16,1.06,.44l25.5,25.5c.28,.28,.44,.66,.44,1.06s-.16,.78-.44,1.06-.66,.44-1.06,.44Z" style="fill: #ec6051;"/>
      <path d="M27.5,1c.26,0,.51,.1,.71,.29l25.5,25.5c.39,.39,.39,1.02,0,1.41-.2,.2-.45,.29-.71,.29s-.51-.1-.71-.29L27.5,3.41,2.71,28.21c-.2,.2-.45,.29-.71,.29s-.51-.1-.71-.29c-.39-.39-.39-1.02,0-1.41L26.79,1.29c.2-.2,.45-.29,.71-.29m0-1c-.53,0-1.04,.21-1.41,.59L.59,26.09c-.38,.38-.59,.88-.59,1.41s.21,1.04,.59,1.41,.88,.59,1.41,.59,1.04-.21,1.41-.59L27.5,4.83l24.09,24.09c.38,.38,.88,.59,1.41,.59s1.04-.21,1.41-.59c.38-.38,.59-.88,.59-1.41s-.21-1.04-.59-1.41L28.91,.59c-.38-.38-.88-.59-1.41-.59h0Z" style="fill: #fff;"/>
    </g>
  </g>
</svg>