<?xml version="1.0" encoding="UTF-8"?><svg id="_イヤー_2" xmlns="http://www.w3.org/2000/svg" viewBox="0 0 50.26 50.26"><defs><style>.cls-1{fill:#f5f5f5;}.cls-2{fill:#323232;}</style></defs><g id="_イアウト"><g><g><path class="cls-1" d="M25.13,48.76C12.1,48.76,1.5,38.16,1.5,25.13S12.1,1.5,25.13,1.5s23.63,10.6,23.63,23.63-10.6,23.63-23.63,23.63Z"/><path class="cls-1" d="M25.13,3c12.22,0,22.13,9.91,22.13,22.13s-9.91,22.13-22.13,22.13S3,37.35,3,25.13,12.91,3,25.13,3m0-3C11.27,0,0,11.27,0,25.13s11.27,25.13,25.13,25.13,25.13-11.27,25.13-25.13S38.98,0,25.13,0h0Z"/></g><g id="_イヤー_2-2"><g id="icon_data"><path class="cls-2" d="M33.31,37.97H16.95c-.47,0-.85-.38-.85-.85V15.32c0-.47,.38-.85,.85-.85h3.82c.47,0,.85,.38,.85,.85s-.38,.85-.85,.85h-2.97v20.11h14.66V16.11c-.32-.12-.54-.43-.54-.79,0-.47,.38-.85,.85-.85h.54c.47,0,.85,.38,.85,.85v21.81c0,.47-.38,.85-.85,.85Z"/><path class="cls-2" d="M28.4,18.34h-6.54c-1.07,0-1.94-.87-1.94-1.94v-3.27c0-.47,.38-.85,.85-.85h8.72c.47,0,.85,.38,.85,.85v3.27c0,1.07-.87,1.94-1.94,1.94Zm-6.79-4.36v2.42c0,.13,.11,.24,.24,.24h6.54c.13,0,.24-.11,.24-.24v-2.42h-7.03Z"/><path class="cls-2" d="M28.4,28.16h-6.54c-.47,0-.85-.38-.85-.85s.38-.85,.85-.85h6.54c.47,0,.85,.38,.85,.85s-.38,.85-.85,.85Z"/><path class="cls-2" d="M25.13,31.43c-.47,0-.85-.38-.85-.85v-6.54c0-.47,.38-.85,.85-.85s.85,.38,.85,.85v6.54c0,.47-.38,.85-.85,.85Z"/></g></g></g></g></svg>