<?xml version="1.0" encoding="UTF-8"?>
<svg id="_レイヤー_2" data-name="レイヤー 2" xmlns="http://www.w3.org/2000/svg" width="120.44" height="120.44" viewBox="0 0 120.44 120.44">
  <g id="_レイアウト" data-name="レイアウト">
    <g>
      <circle cx="60.22" cy="60.22" r="60.22" style="fill: #ec6051;"/>
      <g>
        <g>
          <path d="M48.7,36.53c2.2,0,3.98,1.79,3.98,3.98s-1.79,3.98-3.98,3.98-3.98-1.79-3.98-3.98,1.79-3.98,3.98-3.98Zm-7.23,21.36v-4.01c0-2.61,2.13-4.74,4.74-4.74h4.98c2.61,0,4.74,2.13,4.74,4.74v4.01" style="fill: none; stroke: #fff; stroke-linecap: round; stroke-linejoin: round; stroke-width: 3.3px;"/>
          <path d="M68.17,94.53c3.02-.43,4.21-1.31,4.21-1.31,.8-.44,1.51-.95,2.04-1.49l8.35-8.5c.48-.49,1.69-4.1,2.11-5.71,0,0-.37,1.67,0,0l-14.37,.13c-1.04,0-1.88,.84-1.88,1.88v15.04c-.42,.07-.82,.11-1.2,.11h-29.63c-2.26,0-4.11-1.85-4.11-4.11V29.46c0-2.26,1.85-4.11,4.11-4.11h43.74c2.26,0,4.11,1.85,4.11,4.11v41.98" style="fill: none; stroke: #fff; stroke-linecap: round; stroke-linejoin: round; stroke-width: 3.3px;"/>
        </g>
        <line x1="77.94" y1="43.06" x2="63.27" y2="43.06" style="fill: none; stroke: #fff; stroke-linecap: round; stroke-linejoin: round; stroke-width: 3.3px;"/>
        <line x1="77.94" y1="56.37" x2="63.27" y2="56.37" style="fill: none; stroke: #fff; stroke-linecap: round; stroke-linejoin: round; stroke-width: 3.3px;"/>
        <line x1="77.94" y1="69.67" x2="41.38" y2="69.67" style="fill: none; stroke: #fff; stroke-linecap: round; stroke-linejoin: round; stroke-width: 3.3px;"/>
        <line x1="62.24" y1="82.98" x2="41.38" y2="82.98" style="fill: none; stroke: #fff; stroke-linecap: round; stroke-linejoin: round; stroke-width: 3.3px;"/>
      </g>
    </g>
  </g>
</svg>