<?xml version="1.0" encoding="UTF-8"?>
<svg id="_レイヤー_2" data-name="レイヤー 2" xmlns="http://www.w3.org/2000/svg" width="27.23" height="28.53" viewBox="0 0 27.23 28.53">
  <g id="_レイアウト" data-name="レイアウト">
    <g>
      <g>
        <polyline points=".64 27.9 .64 10.37 6.48 10.37 6.48 .64 20.76 .64 20.76 10.37 26.6 10.37 26.6 27.9" style="fill: none; stroke: #fff; stroke-linecap: round; stroke-linejoin: round; stroke-width: 1.27px;"/>
        <line x1="11.02" y1="7.78" x2="16.21" y2="7.78" style="fill: none; stroke: #fff; stroke-linecap: round; stroke-linejoin: round; stroke-width: 1.27px;"/>
        <line x1="13.62" y1="5.18" x2="13.62" y2="10.37" style="fill: none; stroke: #fff; stroke-linecap: round; stroke-linejoin: round; stroke-width: 1.27px;"/>
      </g>
      <circle cx="5.83" cy="15.56" r="1.3" style="fill: #fff;"/>
      <circle cx="11.02" cy="15.56" r="1.3" style="fill: #fff;"/>
      <circle cx="16.21" cy="15.56" r="1.3" style="fill: #fff;"/>
      <circle cx="21.41" cy="15.56" r="1.3" style="fill: #fff;"/>
      <circle cx="5.83" cy="20.76" r="1.3" style="fill: #fff;"/>
      <circle cx="11.02" cy="20.76" r="1.3" style="fill: #fff;"/>
      <circle cx="16.21" cy="20.76" r="1.3" style="fill: #fff;"/>
      <circle cx="21.41" cy="20.76" r="1.3" style="fill: #fff;"/>
      <circle cx="5.83" cy="25.95" r="1.3" style="fill: #fff;"/>
      <circle cx="11.02" cy="25.95" r="1.3" style="fill: #fff;"/>
      <circle cx="16.21" cy="25.95" r="1.3" style="fill: #fff;"/>
      <circle cx="21.41" cy="25.95" r="1.3" style="fill: #fff;"/>
    </g>
  </g>
</svg>