<?xml version="1.0" encoding="UTF-8"?><svg id="_イヤー_2" xmlns="http://www.w3.org/2000/svg" viewBox="0 0 31.4 20.37"><defs><style>.cls-1{fill:#ec6051;}</style></defs><g id="_イアウト"><path class="cls-1" d="M30.14,11.52c.79-1.18,1.26-2.61,1.26-4.13,0-1.01-.21-1.99-.58-2.88-.56-1.33-1.5-2.45-2.67-3.25C26.97,.47,25.54,0,24.02,0h-7.93c-1.02,0-1.99,.21-2.88,.58-1.33,.56-2.45,1.5-3.25,2.68-.8,1.17-1.26,2.61-1.26,4.13,0,1.02,.21,1.99,.58,2.88,.56,1.33,1.49,2.45,2.67,3.25,1.18,.8,2.61,1.26,4.13,1.26h.59c.31-.23,.56-.56,.71-.91,.11-.28,.18-.57,.17-.88,0-.46-.13-.88-.38-1.26-.14-.2-.31-.38-.5-.53h-.59c-.53,0-1.03-.11-1.48-.29-.68-.29-1.27-.77-1.68-1.38-.41-.61-.65-1.33-.65-2.13,0-.53,.11-1.03,.3-1.48,.29-.68,.77-1.26,1.38-1.68,.61-.41,1.33-.65,2.13-.65h7.93c.53,0,1.03,.11,1.48,.3,.68,.29,1.27,.77,1.68,1.38,.41,.61,.65,1.33,.65,2.13,0,.53-.11,1.03-.3,1.48-.29,.68-.77,1.27-1.38,1.68-.6,.4-1.3,.64-2.07,.65,.12,.58,.18,1.18,.18,1.79,0,.61-.06,1.21-.18,1.79,1,0,1.95-.21,2.82-.58,1.33-.56,2.45-1.49,3.25-2.67Zm-7.45,1.47c0-1.01-.2-1.99-.58-2.87-.56-1.33-1.5-2.45-2.67-3.25-1.18-.8-2.61-1.26-4.13-1.26h-.6c-.31,.24-.56,.55-.7,.91-.12,.27-.18,.57-.18,.88,0,.45,.13,.88,.39,1.26,.13,.2,.31,.38,.5,.53h.59c.53,0,1.03,.11,1.48,.3,.68,.29,1.27,.77,1.68,1.38,.41,.61,.65,1.33,.65,2.13,0,.53-.11,1.03-.3,1.48-.29,.68-.78,1.27-1.38,1.68-.61,.41-1.33,.65-2.13,.65H7.38c-.53,0-1.03-.11-1.48-.3-.68-.29-1.26-.77-1.68-1.38-.41-.61-.65-1.33-.65-2.13,0-.53,.11-1.03,.3-1.48,.29-.68,.77-1.27,1.38-1.68,.6-.4,1.3-.64,2.08-.65-.12-.58-.18-1.18-.18-1.79h0c0-.61,.06-1.21,.18-1.79-1,0-1.95,.21-2.82,.58-1.33,.56-2.45,1.5-3.25,2.67C.46,10.03,0,11.46,0,12.98c0,1.02,.21,1.99,.58,2.88,.56,1.33,1.5,2.45,2.67,3.25s2.61,1.26,4.13,1.26h7.93c1.02,0,1.99-.21,2.88-.58,1.33-.56,2.45-1.5,3.25-2.67,.8-1.18,1.26-2.61,1.26-4.13Z"/></g></svg>