<?xml version="1.0" encoding="UTF-8"?>
<svg id="_レイヤー_2" data-name="レイヤー 2" xmlns="http://www.w3.org/2000/svg" width="50.26" height="50.26" viewBox="0 0 50.26 50.26">
  <g id="_レイアウト" data-name="レイアウト">
    <g>
      <g>
        <path d="M25.13,48.76C12.1,48.76,1.5,38.16,1.5,25.13S12.1,1.5,25.13,1.5s23.63,10.6,23.63,23.63-10.6,23.63-23.63,23.63Z" style="fill: #f5f5f5;"/>
        <path d="M25.13,3c12.22,0,22.13,9.91,22.13,22.13s-9.91,22.13-22.13,22.13S3,37.35,3,25.13,12.91,3,25.13,3m0-3C11.27,0,0,11.27,0,25.13s11.27,25.13,25.13,25.13,25.13-11.27,25.13-25.13S38.98,0,25.13,0h0Z" style="fill: #f5f5f5;"/>
      </g>
      <path d="M22.57,29.54c0-3.41,.39-4.33,4.22-5.84,2.29-.88,3.24-2.39,3.24-3.9,0-2.18-2.04-4.29-4.96-4.29-.74,0-1.51,.11-2.36,.42-.21,.07-.46,.11-.67,.11-1.02,0-1.76-.88-1.76-1.79,0-2.07,3.52-2.29,4.78-2.29,5.35,0,9.07,3.94,9.07,7.95,0,2.71-1.69,5.45-5.7,7.07-1.79,.74-2.11,.91-2.11,2.29,0,.21,.04,.49,.04,.77v.11c0,1.3-.98,2-1.97,2-1.79,0-1.83-1.79-1.83-2.6Zm2.11,9.39c-.95,0-2.46-.42-2.46-2.46,0-1.72,1.48-2.39,2.46-2.39,1.16,0,2.5,.84,2.5,2.36,0,.91-.74,2.5-2.5,2.5Z" style="fill: #323232;"/>
    </g>
  </g>
</svg>