<?xml version="1.0" encoding="UTF-8"?>
<svg id="_レイヤー_2" data-name="レイヤー 2" xmlns="http://www.w3.org/2000/svg" width="120.44" height="120.44" viewBox="0 0 120.44 120.44">
  <g id="_レイアウト" data-name="レイアウト">
    <g>
      <circle cx="60.22" cy="60.22" r="60.22" style="fill: #ec6051;"/>
      <g>
        <g>
          <polyline points="26.87 95.63 26.87 50.11 42.04 50.11 42.04 24.83 79.12 24.83 79.12 50.11 94.29 50.11 94.29 95.63" style="fill: none; stroke: #fff; stroke-linecap: round; stroke-linejoin: round; stroke-width: 3.3px;"/>
          <line x1="53.84" y1="43.37" x2="67.32" y2="43.37" style="fill: none; stroke: #fff; stroke-linecap: round; stroke-linejoin: round; stroke-width: 3.3px;"/>
          <line x1="60.58" y1="36.63" x2="60.58" y2="50.11" style="fill: none; stroke: #fff; stroke-linecap: round; stroke-linejoin: round; stroke-width: 3.3px;"/>
        </g>
        <circle cx="40.35" cy="63.6" r="3.37" style="fill: #fff;"/>
        <circle cx="53.84" cy="63.6" r="3.37" style="fill: #fff;"/>
        <circle cx="67.32" cy="63.6" r="3.37" style="fill: #fff;"/>
        <circle cx="80.81" cy="63.6" r="3.37" style="fill: #fff;"/>
        <circle cx="40.35" cy="77.09" r="3.37" style="fill: #fff;"/>
        <circle cx="53.84" cy="77.09" r="3.37" style="fill: #fff;"/>
        <circle cx="67.32" cy="77.09" r="3.37" style="fill: #fff;"/>
        <circle cx="80.81" cy="77.09" r="3.37" style="fill: #fff;"/>
        <circle cx="40.35" cy="90.57" r="3.37" style="fill: #fff;"/>
        <circle cx="53.84" cy="90.57" r="3.37" style="fill: #fff;"/>
        <circle cx="67.32" cy="90.57" r="3.37" style="fill: #fff;"/>
        <circle cx="80.81" cy="90.57" r="3.37" style="fill: #fff;"/>
      </g>
    </g>
  </g>
</svg>