<?xml version="1.0" encoding="UTF-8"?>
<svg id="_レイヤー_2" data-name="レイヤー 2" xmlns="http://www.w3.org/2000/svg" width="21.28" height="27.96" viewBox="0 0 21.28 27.96">
  <g id="_レイアウト" data-name="レイアウト">
    <g>
      <g>
        <path d="M6.42,4.94c.85,0,1.53,.69,1.53,1.53s-.69,1.53-1.53,1.53-1.53-.69-1.53-1.53,.69-1.53,1.53-1.53ZM3.64,13.16v-1.55c0-1.01,.82-1.83,1.83-1.83h1.92c1.01,0,1.83,.82,1.83,1.83v1.55" style="fill: none; stroke: #fff; stroke-linecap: round; stroke-linejoin: round; stroke-width: 1.27px;"/>
        <path d="M13.92,27.27c1.16-.17,1.62-.5,1.62-.5,.31-.17,.58-.37,.79-.57l3.21-3.27c.19-.19,.65-1.58,.81-2.2,0,0-.14,.64,0,0l-5.53,.05c-.4,0-.72,.32-.72,.72v5.79c-.16,.03-.32,.04-.46,.04H2.22c-.87,0-1.58-.71-1.58-1.58V2.22c0-.87,.71-1.58,1.58-1.58H19.06c.87,0,1.58,.71,1.58,1.58V18.38" style="fill: none; stroke: #fff; stroke-linecap: round; stroke-linejoin: round; stroke-width: 1.27px;"/>
      </g>
      <line x1="17.68" y1="7.45" x2="12.03" y2="7.45" style="fill: none; stroke: #fff; stroke-linecap: round; stroke-linejoin: round; stroke-width: 1.27px;"/>
      <line x1="17.68" y1="12.58" x2="12.03" y2="12.58" style="fill: none; stroke: #fff; stroke-linecap: round; stroke-linejoin: round; stroke-width: 1.27px;"/>
      <line x1="17.68" y1="17.7" x2="3.6" y2="17.7" style="fill: none; stroke: #fff; stroke-linecap: round; stroke-linejoin: round; stroke-width: 1.27px;"/>
      <line x1="11.63" y1="22.83" x2="3.6" y2="22.83" style="fill: none; stroke: #fff; stroke-linecap: round; stroke-linejoin: round; stroke-width: 1.27px;"/>
    </g>
  </g>
</svg>