<?xml version="1.0" encoding="UTF-8"?><svg id="_イヤー_2" xmlns="http://www.w3.org/2000/svg" viewBox="0 0 23.83 23.83"><defs><style>.cls-1{fill:#fff;}.cls-2{fill:#323232;}</style></defs><g id="_イアウト"><g><circle class="cls-2" cx="11.92" cy="11.92" r="11.92"/><path class="cls-1" d="M15.86,17.1c-.1-.51-.27-1.12-.44-1.56l-.67-1.75h-4.98l-.67,1.75c-.25,.65-.35,.99-.45,1.56h-2.1c.25-.45,.48-.95,.79-1.76l3.33-8.5c.29-.73,.41-1.1,.48-1.47h2.16c.07,.33,.15,.55,.51,1.47l3.34,8.5c.38,.93,.57,1.38,.78,1.76h-2.08Zm-3.31-9.4q-.06-.15-.3-.9-.25,.78-.3,.9l-1.71,4.65h4.04l-1.73-4.65Z"/></g></g></svg>