<?xml version="1.0" encoding="UTF-8"?><svg id="_イヤー_2" xmlns="http://www.w3.org/2000/svg" viewBox="0 0 30.52 23.53"><defs><style>.cls-1{fill:#ec6051;}</style></defs><g id="_イアウト"><g><path class="cls-1" d="M0,7.22v14.84c0,.81,.66,1.47,1.47,1.47h3.02V5.75H1.47c-.81,0-1.47,.66-1.47,1.47Z"/><path class="cls-1" d="M29.06,5.75h-3.02V23.53h3.02c.81,0,1.47-.66,1.47-1.47V7.22c0-.81-.66-1.47-1.47-1.47Z"/><path class="cls-1" d="M21.33,1.37c0-.76-.61-1.37-1.37-1.37H10.57c-.76,0-1.37,.61-1.37,1.37V5.75h-1.79V23.53h15.72V5.75h-1.79V1.37h0Zm-9.56,1.2h6.99v3.18h-6.99V2.57Z"/></g></g></svg>