<?xml version="1.0" encoding="UTF-8"?><svg id="_イヤー_2" xmlns="http://www.w3.org/2000/svg" viewBox="0 0 91.3 91.31"><defs><style>.cls-1{fill:#f5f5f5;}.cls-2{fill:none;stroke:#323232;stroke-linecap:round;stroke-miterlimit:10;stroke-width:3px;}</style></defs><g id="_イアウト"><g><g><circle class="cls-1" cx="45.65" cy="45.65" r="43.6" transform="translate(-6.72 83.4) rotate(-80.78)"/><path class="cls-1" d="M45.65,4.1c22.95,0,41.55,18.6,41.55,41.55s-18.6,41.55-41.55,41.55S4.1,68.6,4.1,45.65,22.7,4.1,45.65,4.1m0-4.1C20.48,0,0,20.48,0,45.65s20.48,45.65,45.65,45.65,45.65-20.48,45.65-45.65S70.83,0,45.65,0h0Z"/></g><g><path class="cls-2" d="M59.69,41.96v-1.39c0-7.92-2.17-11.53-8.02-11.53s-8.02,3.61-8.02,11.53v1.39"/><circle class="cls-2" cx="51.67" cy="21.1" r="3.91"/><path class="cls-2" d="M34.89,53.47v-12.91c0-7.92-2.17-11.53-8.02-11.53s-8.02,3.61-8.02,11.53v12.91"/><line class="cls-2" x1="24.02" y1="47.12" x2="24.02" y2="76.35"/><line class="cls-2" x1="29.72" y1="47.12" x2="29.72" y2="76.35"/><circle class="cls-2" cx="26.87" cy="21.1" r="3.91"/><path class="cls-2" d="M35.02,42.71h32.78c.83,0,1.5,.67,1.5,1.5v31.9"/></g></g></g></svg>