<?xml version="1.0" encoding="UTF-8"?><svg id="_イヤー_2" xmlns="http://www.w3.org/2000/svg" viewBox="0 0 50.26 50.26"><defs><style>.cls-1{fill:none;stroke:#323232;stroke-linejoin:round;stroke-width:1.8px;}.cls-2{fill:#f5f5f5;}</style></defs><g id="_イアウト"><g><g><path class="cls-2" d="M25.13,48.76C12.1,48.76,1.5,38.16,1.5,25.13S12.1,1.5,25.13,1.5s23.63,10.6,23.63,23.63-10.6,23.63-23.63,23.63Z"/><path class="cls-2" d="M25.13,3c12.22,0,22.13,9.91,22.13,22.13s-9.91,22.13-22.13,22.13S3,37.35,3,25.13,12.91,3,25.13,3m0-3C11.27,0,0,11.27,0,25.13s11.27,25.13,25.13,25.13,25.13-11.27,25.13-25.13S38.98,0,25.13,0h0Z"/></g><g><path class="cls-1" d="M16.04,30.58v4.62h-3.04V15.96s1.12-.09,2,0c.59,.06,1.08,.07,1.08,1.59,0,.26-.11,7.57,0,7.57h19.66"/><line class="cls-1" x1="13.89" y1="28.13" x2="37.97" y2="28.13"/><polyline class="cls-1" points="38 20.12 38 35.2 35.18 35.2 35.18 30.58"/><path class="cls-1" d="M18.08,20.97h4.86s1.39,.37,1.39,1.39,0,.83,0,.83"/></g></g></g></svg>