<?xml version="1.0" encoding="UTF-8"?>
<svg id="_レイヤー_2" data-name="レイヤー 2" xmlns="http://www.w3.org/2000/svg" width="120.44" height="120.44" viewBox="0 0 120.44 120.44">
  <g id="_レイアウト" data-name="レイアウト">
    <g>
      <circle cx="60.22" cy="60.22" r="60.22" style="fill: #ec6051;"/>
      <path d="M60.59,18.87c2.08,0,3.76,1.68,3.76,3.76v6.08h15.92c1.5,0,2.71,1.22,2.71,2.71s-1.22,2.71-2.71,2.71h-15.92v8.14h15.92c1.5,0,2.71,1.22,2.71,2.71s-1.22,2.71-2.71,2.71h-15.92v8.14h15.92c1.5,0,2.71,1.22,2.71,2.71s-1.22,2.71-2.71,2.71h-15.92v7.42c.52,1.21,1.68,2.39,3.91,2.39,.63,0,1.35-.1,2.17-.31,2.79-.74,5.51-1.28,8.22-1.28,2.24,0,4.47,.36,6.71,1.28,10.86,4.41,9.84,21.72-2.38,24.43-1.32,.29-2.55,.43-3.69,.43-11.5,0-14.07-13.66-18.71-13.66s-7.2,13.66-18.71,13.66c-1.14,0-2.37-.13-3.69-.43-12.22-2.71-13.23-20.02-2.38-24.43,2.25-.91,4.48-1.28,6.71-1.28,2.71,0,5.43,.53,8.22,1.28,.82,.22,1.53,.31,2.17,.31,2.23,0,3.39-1.18,3.91-2.39v-7.42h-15.92c-1.5,0-2.71-1.22-2.71-2.71s1.22-2.71,2.71-2.71h15.92v-8.14h-15.92c-1.5,0-2.71-1.22-2.71-2.71s1.22-2.71,2.71-2.71h15.92v-8.14h-15.92c-1.5,0-2.71-1.22-2.71-2.71s1.22-2.71,2.71-2.71h15.92v-6.08c0-2.08,1.68-3.76,3.76-3.76m0-2.78c-3.6,0-6.53,2.93-6.53,6.53v3.31h-13.15c-3.03,0-5.49,2.46-5.49,5.49s2.46,5.49,5.49,5.49h13.15v2.59h-13.15c-3.03,0-5.49,2.46-5.49,5.49s2.46,5.49,5.49,5.49h13.15v2.59h-13.15c-3.03,0-5.49,2.46-5.49,5.49s2.46,5.49,5.49,5.49h13.15v3.9c-.2,.21-.53,.36-1.14,.36-.42,0-.91-.07-1.45-.22-3.56-.95-6.31-1.37-8.93-1.37-2.76,0-5.3,.48-7.76,1.48-6.17,2.51-9.77,8.66-9.18,15.69,.59,7.03,5.3,12.53,12,14.02,1.48,.33,2.92,.49,4.29,.49,8.46,0,12.91-6.16,15.85-10.23,.88-1.22,2.19-3.03,2.85-3.4,.66,.36,1.97,2.18,2.86,3.4,2.94,4.08,7.39,10.23,15.85,10.23,1.37,0,2.82-.17,4.29-.49,6.7-1.49,11.41-6.99,12-14.02,.59-7.03-3.02-13.18-9.18-15.69-2.46-1-4.99-1.48-7.76-1.48-2.62,0-5.38,.42-8.93,1.37-.55,.15-1.03,.22-1.45,.22-.62,0-.95-.15-1.14-.35v-3.91h13.15c3.03,0,5.49-2.46,5.49-5.49s-2.46-5.49-5.49-5.49h-13.15v-2.59h13.15c3.03,0,5.49-2.46,5.49-5.49s-2.46-5.49-5.49-5.49h-13.15v-2.59h13.15c3.03,0,5.49-2.46,5.49-5.49s-2.46-5.49-5.49-5.49h-13.15v-3.31c0-3.6-2.93-6.53-6.53-6.53h0Z" style="fill: #fff;"/>
      <path d="M42.44,77.91c2.34,0,4.24,1.9,4.24,4.24s-1.9,4.24-4.24,4.24-4.24-1.9-4.24-4.24,1.9-4.24,4.24-4.24m0-2.78c-3.87,0-7.02,3.15-7.02,7.02s3.15,7.02,7.02,7.02,7.02-3.15,7.02-7.02-3.15-7.02-7.02-7.02h0Z" style="fill: #fff;"/>
      <path d="M78.75,77.91c2.34,0,4.24,1.9,4.24,4.24s-1.9,4.24-4.24,4.24-4.24-1.9-4.24-4.24,1.9-4.24,4.24-4.24m0-2.78c-3.87,0-7.02,3.15-7.02,7.02s3.15,7.02,7.02,7.02,7.02-3.15,7.02-7.02-3.15-7.02-7.02-7.02h0Z" style="fill: #fff;"/>
    </g>
  </g>
</svg>