<?xml version="1.0" encoding="UTF-8"?>
<svg id="_レイヤー_2" data-name="レイヤー 2" xmlns="http://www.w3.org/2000/svg" width="27" height="31.7" viewBox="0 0 27 31.7">
  <g id="_レイアウト" data-name="レイアウト">
    <g>
      <path d="M13.5,1.07c.8,0,1.45,.65,1.45,1.45v2.34h6.13c.58,0,1.05,.47,1.05,1.05s-.47,1.05-1.05,1.05h-6.13v3.14h6.13c.58,0,1.05,.47,1.05,1.05s-.47,1.05-1.05,1.05h-6.13v3.14h6.13c.58,0,1.05,.47,1.05,1.05s-.47,1.05-1.05,1.05h-6.13v2.86c.2,.47,.65,.92,1.51,.92,.24,0,.52-.04,.83-.12,1.07-.29,2.12-.49,3.16-.49,.86,0,1.72,.14,2.59,.49,4.18,1.7,3.79,8.36-.91,9.41-.51,.11-.98,.16-1.42,.16-4.43,0-5.42-5.26-7.2-5.26s-2.77,5.26-7.2,5.26c-.44,0-.91-.05-1.42-.16C.17,29.42-.22,22.76,3.96,21.06c.87-.35,1.72-.49,2.58-.49,1.04,0,2.09,.21,3.16,.49,.31,.08,.59,.12,.83,.12,.86,0,1.31-.46,1.51-.92v-2.86H5.92c-.58,0-1.05-.47-1.05-1.05s.47-1.05,1.05-1.05h6.13v-3.14H5.92c-.58,0-1.05-.47-1.05-1.05s.47-1.05,1.05-1.05h6.13v-3.14H5.92c-.58,0-1.05-.47-1.05-1.05s.47-1.05,1.05-1.05h6.13V2.52c0-.8,.65-1.45,1.45-1.45m0-1.07c-1.39,0-2.52,1.13-2.52,2.52v1.27H5.92c-1.17,0-2.11,.95-2.11,2.11s.95,2.11,2.11,2.11h5.06v1H5.92c-1.17,0-2.11,.95-2.11,2.11s.95,2.11,2.11,2.11h5.06v1H5.92c-1.17,0-2.11,.95-2.11,2.11s.95,2.11,2.11,2.11h5.06v1.5c-.08,.08-.2,.14-.44,.14-.16,0-.35-.03-.56-.08-1.37-.37-2.43-.53-3.44-.53-1.06,0-2.04,.19-2.99,.57C1.19,21.03-.2,23.4,.02,26.11c.23,2.71,2.04,4.83,4.62,5.4,.57,.13,1.12,.19,1.65,.19,3.26,0,4.97-2.37,6.1-3.94,.34-.47,.84-1.17,1.1-1.31,.26,.14,.76,.84,1.1,1.31,1.13,1.57,2.85,3.94,6.1,3.94,.53,0,1.08-.06,1.65-.19,2.58-.57,4.39-2.69,4.62-5.4,.23-2.71-1.16-5.08-3.54-6.04-.95-.38-1.92-.57-2.99-.57-1.01,0-2.07,.16-3.44,.53-.21,.06-.4,.08-.56,.08-.23,0-.36-.06-.44-.14v-1.5h5.06c1.17,0,2.11-.95,2.11-2.11s-.95-2.11-2.11-2.11h-5.06v-1h5.06c1.17,0,2.11-.95,2.11-2.11s-.95-2.11-2.11-2.11h-5.06v-1h5.06c1.17,0,2.11-.95,2.11-2.11s-.95-2.11-2.11-2.11h-5.06v-1.27c0-1.39-1.13-2.52-2.52-2.52h0Z" style="fill: #fff;"/>
      <path d="M6.51,23.8c.9,0,1.63,.73,1.63,1.63s-.73,1.63-1.63,1.63-1.63-.73-1.63-1.63,.73-1.63,1.63-1.63m0-1.07c-1.49,0-2.7,1.21-2.7,2.7s1.21,2.7,2.7,2.7,2.7-1.21,2.7-2.7-1.21-2.7-2.7-2.7h0Z" style="fill: #fff;"/>
      <path d="M20.49,23.8c.9,0,1.63,.73,1.63,1.63s-.73,1.63-1.63,1.63-1.63-.73-1.63-1.63,.73-1.63,1.63-1.63m0-1.07c-1.49,0-2.7,1.21-2.7,2.7s1.21,2.7,2.7,2.7,2.7-1.21,2.7-2.7-1.21-2.7-2.7-2.7h0Z" style="fill: #fff;"/>
    </g>
  </g>
</svg>