<?xml version="1.0" encoding="UTF-8"?><svg id="_イヤー_2" xmlns="http://www.w3.org/2000/svg" viewBox="0 0 23.83 23.83"><defs><style>.cls-1{fill:#fff;}.cls-2{fill:#ec6051;}</style></defs><g id="_イアウト"><g><circle class="cls-2" cx="11.92" cy="11.92" r="11.92"/><path class="cls-1" d="M15.32,19.1c-.28-.39-.42-.52-1.36-1.47-.87,.5-1.65,.71-2.71,.71-3.31,0-5.43-2.37-5.43-6.07s2.15-6.12,5.46-6.12,5.4,2.37,5.4,6.07c0,1.03-.17,1.96-.51,2.8-.27,.68-.51,1.05-1.14,1.75,.73,.72,.92,.89,1.35,1.23l-1.05,1.1Zm-2.67-4.68c.25,.29,.52,.59,1.19,1.23,.39-.43,.52-.66,.69-1.08,.27-.69,.41-1.46,.41-2.34,0-1.62-.42-2.85-1.23-3.68-.65-.63-1.46-.96-2.42-.96-2.29,0-3.75,1.8-3.75,4.64s1.46,4.65,3.73,4.65c.6,0,1.05-.1,1.53-.38-.48-.46-.76-.7-1.2-1.05l1.05-1.04Z"/></g></g></svg>