<?xml version="1.0" encoding="UTF-8"?><svg id="_イヤー_2" xmlns="http://www.w3.org/2000/svg" viewBox="0 0 30.28 26.13"><defs><style>.cls-1{fill:#ec6051;}</style></defs><g id="_イアウト"><g><path class="cls-1" d="M22.18,21.35v-.6c0-.88-.73-1.59-1.64-1.59H2.77c-1.02,0-1.84,.8-1.84,1.78v3.39c0,.99,.82,1.78,1.84,1.78H30.28v-4.78h-8.1Z"/><path class="cls-1" d="M3.33,9.44c-.34,0-.61,.27-.61,.59v7.9h2.07v-7.9c0-.33-.27-.59-.61-.59h-.84Z"/><path class="cls-1" d="M7.2,9.44c-.34,0-.61,.27-.61,.59v7.9h2.07v-7.9c0-.33-.27-.59-.61-.59h-.84Z"/><path class="cls-1" d="M11.06,9.44c-.34,0-.61,.27-.61,.59v7.9h2.07v-7.9c0-.33-.27-.59-.61-.59h-.84Z"/><path class="cls-1" d="M14.92,9.44c-.34,0-.61,.27-.61,.59v7.9h2.07v-7.9c0-.33-.27-.59-.61-.59h-.84Z"/><path class="cls-1" d="M18.79,9.44c-.34,0-.61,.27-.61,.59v7.9h2.07v-7.9c0-.33-.27-.59-.61-.59h-.84Z"/><path class="cls-1" d="M5.89,8.17h15.18c0-3.7-1.38-6.69-6.9-6.69H5.75C2.44,1.47,1.2,0,1.2,0c-3.04,4.95,.12,8.17,4.69,8.17Z"/></g></g></svg>