<?xml version="1.0" encoding="UTF-8"?>
<svg id="_レイヤー_2" data-name="レイヤー 2" xmlns="http://www.w3.org/2000/svg" width="8.61" height="4" xmlns:xlink="http://www.w3.org/1999/xlink" viewBox="0 0 8.61 4">
  <defs>
    <clipPath id="clippath">
      <rect width="8.61" height="4" style="fill: none;"/>
    </clipPath>
  </defs>
  <g id="_レイアウト" data-name="レイアウト">
    <g style="clip-path: url(#clippath);">
      <rect x="-103" y="-2359.21" width="1100" height="5160.61" style="fill: #fff;"/>
      <path d="M612.07,4c-1.1,0-2.05-.9-2.05-2s.85-2,1.95-2h.1c1.1,0,2,.9,2,2s-.9,2-2,2Zm-9.1,0h-.1c-1.1,0-2-.9-2-2s.9-2,2-2h.1c1.1,0,2,.9,2,2s-.9,2-2,2Zm-9.1,0c-1.1,0-2.05-.9-2.05-2s.85-2,1.95-2h.1c1.1,0,2,.9,2,2s-.9,2-2,2Zm-9.1,0c-1.1,0-2.05-.9-2.05-2s.85-2,1.95-2h.1c1.1,0,2,.9,2,2s-.9,2-2,2Zm-9.1,0h-.1c-1.1,0-2-.9-2-2s.9-2,2-2h.1c1.1,0,2,.9,2,2s-.9,2-2,2Zm-9.1,0c-1.1,0-2.05-.9-2.05-2s.85-2,1.95-2h.1c1.1,0,2,.9,2,2s-.9,2-2,2Zm-9.1,0c-1.1,0-2.05-.9-2.05-2s.85-2,1.95-2h.1c1.1,0,2,.9,2,2s-.9,2-2,2Zm-9.1,0h-.1c-1.1,0-2-.9-2-2s.9-2,2-2h.1c1.1,0,2,.9,2,2s-.9,2-2,2Zm-9.1,0c-1.1,0-2.05-.9-2.05-2s.85-2,1.95-2h.1c1.1,0,2,.9,2,2s-.9,2-2,2Zm-9.1,0h-.1c-1.1,0-2-.9-2-2s.9-2,2-2h.1c1.1,0,2,.9,2,2s-.9,2-2,2Zm-9.1,0c-1.1,0-2.05-.9-2.05-2s.85-2,1.95-2h.1c1.1,0,2,.9,2,2s-.9,2-2,2Zm-9.1,0c-1.1,0-2.05-.9-2.05-2s.85-2,1.95-2h.1c1.1,0,2,.9,2,2s-.9,2-2,2Zm-9.1,0h-.1c-1.1,0-2-.9-2-2s.9-2,2-2h.1c1.1,0,2,.9,2,2s-.9,2-2,2Zm-9.1,0c-1.1,0-2.05-.9-2.05-2s.85-2,1.95-2h.1c1.1,0,2,.9,2,2s-.9,2-2,2Zm-9.1,0h-.1c-1.1,0-2-.9-2-2s.9-2,2-2h.1c1.1,0,2,.9,2,2s-.9,2-2,2Zm-9.1,0c-1.1,0-2.05-.9-2.05-2s.85-2,1.95-2h.1c1.1,0,2,.9,2,2s-.9,2-2,2Zm-9.1,0c-1.1,0-2.05-.9-2.05-2s.85-2,1.95-2h.1c1.1,0,2,.9,2,2s-.9,2-2,2Zm-9.1,0h-.1c-1.1,0-2-.9-2-2s.9-2,2-2h.1c1.1,0,2,.9,2,2s-.9,2-2,2Zm-9.1,0c-1.1,0-2.05-.9-2.05-2s.85-2,1.95-2h.1c1.1,0,2,.9,2,2s-.9,2-2,2Zm-9.1,0h-.1c-1.1,0-2-.9-2-2s.9-2,2-2h.1c1.1,0,2,.9,2,2s-.9,2-2,2Zm-9.1,0c-1.1,0-2.05-.9-2.05-2s.85-2,1.95-2h.1c1.1,0,2,.9,2,2s-.9,2-2,2Zm-9.1,0c-1.1,0-2.05-.9-2.05-2s.85-2,1.95-2h.1c1.1,0,2,.9,2,2s-.9,2-2,2Zm-9.1,0h-.1c-1.1,0-2-.9-2-2s.9-2,2-2h.1c1.1,0,2,.9,2,2s-.9,2-2,2Zm-9.1,0c-1.1,0-2.05-.9-2.05-2s.85-2,1.95-2h.1c1.1,0,2,.9,2,2s-.9,2-2,2Zm-9.1,0h-.1c-1.1,0-2-.9-2-2s.9-2,2-2h.1c1.1,0,2,.9,2,2s-.9,2-2,2Zm-9.1,0c-1.1,0-2.05-.9-2.05-2s.85-2,1.95-2h.1c1.1,0,2,.9,2,2s-.9,2-2,2Zm-9.1,0c-1.1,0-2.05-.9-2.05-2s.85-2,1.95-2h.1c1.1,0,2,.9,2,2s-.9,2-2,2Zm-9.1,0h-.1c-1.1,0-2-.9-2-2s.9-2,2-2h.1c1.1,0,2,.9,2,2s-.9,2-2,2Zm-9.1,0c-1.1,0-2.05-.9-2.05-2s.85-2,1.95-2h.1c1.1,0,2,.9,2,2s-.9,2-2,2Zm-9.1,0h-.1c-1.1,0-2-.9-2-2s.9-2,2-2h.1c1.1,0,2,.9,2,2s-.9,2-2,2Zm-9.1,0c-1.1,0-2.05-.9-2.05-2s.85-2,1.95-2h.1c1.1,0,2,.9,2,2s-.9,2-2,2Zm-9.1,0c-1.1,0-2.05-.9-2.05-2s.85-2,1.95-2h.1c1.1,0,2,.9,2,2s-.9,2-2,2Zm-9.1,0h-.1c-1.1,0-2-.9-2-2s.9-2,2-2h.1c1.1,0,2,.9,2,2s-.9,2-2,2Zm-9.1,0c-1.1,0-2.05-.9-2.05-2s.85-2,1.95-2h.1c1.1,0,2,.9,2,2s-.9,2-2,2Zm-9.1,0h-.1c-1.1,0-2-.9-2-2s.9-2,2-2h.1c1.1,0,2,.9,2,2s-.9,2-2,2Zm-9.1,0c-1.1,0-2.05-.9-2.05-2s.85-2,1.95-2h.1c1.1,0,2,.9,2,2s-.9,2-2,2Zm-9.1,0c-1.1,0-2.05-.9-2.05-2s.85-2,1.95-2h.1c1.1,0,2,.9,2,2s-.9,2-2,2Zm-9.1,0h-.1c-1.1,0-2-.9-2-2s.9-2,2-2h.1c1.1,0,2,.9,2,2s-.9,2-2,2Zm-9.1,0c-1.1,0-2.05-.9-2.05-2s.85-2,1.95-2h.1c1.1,0,2,.9,2,2s-.9,2-2,2Zm-9.1,0h-.1c-1.1,0-2-.9-2-2s.9-2,2-2h.1c1.1,0,2,.9,2,2s-.9,2-2,2Zm-9.1,0c-1.1,0-2.05-.9-2.05-2s.85-2,1.95-2h.1c1.1,0,2,.9,2,2s-.9,2-2,2Zm-9.1,0h-.1c-1.1,0-2-.9-2-2s.9-2,2-2h.1c1.1,0,2,.9,2,2s-.9,2-2,2Zm-9.1,0c-1.1,0-2.05-.9-2.05-2s.85-2,1.95-2h.1c1.1,0,2,.9,2,2s-.9,2-2,2Zm-9.1,0c-1.1,0-2.05-.9-2.05-2s.85-2,1.95-2h.1c1.1,0,2,.9,2,2s-.9,2-2,2Zm-9.1,0h-.1c-1.1,0-2-.9-2-2s.9-2,2-2h.1c1.1,0,2,.9,2,2s-.9,2-2,2Zm-9.1,0c-1.1,0-2.05-.9-2.05-2s.85-2,1.95-2h.1c1.1,0,2,.9,2,2s-.9,2-2,2Zm-9.1,0h-.1c-1.1,0-2-.9-2-2s.9-2,2-2h.1c1.1,0,2,.9,2,2s-.9,2-2,2Zm-9.1,0c-1.1,0-2.05-.9-2.05-2s.85-2,1.95-2h.1c1.1,0,2,.9,2,2s-.9,2-2,2Zm-9.1,0c-1.1,0-2.05-.9-2.05-2s.85-2,1.95-2h.1c1.1,0,2,.9,2,2s-.9,2-2,2Zm-9.1,0h-.1c-1.1,0-2-.9-2-2s.9-2,2-2h.1c1.1,0,2,.9,2,2s-.9,2-2,2Zm-9.1,0c-1.1,0-2.05-.9-2.05-2s.85-2,1.95-2h.1c1.1,0,2,.9,2,2s-.9,2-2,2Zm-9.1,0h-.1c-1.1,0-2-.9-2-2s.9-2,2-2h.1c1.1,0,2,.9,2,2s-.9,2-2,2Zm-9.1,0c-1.1,0-2.05-.9-2.05-2s.85-2,1.95-2h.1c1.1,0,2,.9,2,2s-.9,2-2,2Zm-9.1,0c-1.1,0-2.05-.9-2.05-2s.85-2,1.95-2h.1c1.1,0,2,.9,2,2s-.9,2-2,2Zm-9.1,0h-.1c-1.1,0-2-.9-2-2s.9-2,2-2h.1c1.1,0,2,.9,2,2s-.9,2-2,2Zm-9.1,0c-1.1,0-2.05-.9-2.05-2s.85-2,1.95-2h.1c1.1,0,2,.9,2,2s-.9,2-2,2Zm-9.1,0h-.1c-1.1,0-2-.9-2-2s.9-2,2-2h.1c1.1,0,2,.9,2,2s-.9,2-2,2Zm-9.1,0c-1.1,0-2.05-.9-2.05-2s.85-2,1.95-2h.1c1.1,0,2,.9,2,2s-.9,2-2,2Zm-9.1,0c-1.1,0-2.05-.9-2.05-2s.85-2,1.95-2h.1c1.1,0,2,.9,2,2s-.9,2-2,2Zm-9.1,0h-.1c-1.1,0-2-.9-2-2s.9-2,2-2h.1c1.1,0,2,.9,2,2s-.9,2-2,2Zm-9.1,0c-1.1,0-2.05-.9-2.05-2s.85-2,1.95-2h.1c1.1,0,2,.9,2,2s-.9,2-2,2Zm-9.1,0h-.1c-1.1,0-2-.9-2-2s.9-2,2-2h.1c1.1,0,2,.9,2,2s-.9,2-2,2Zm-9.1,0c-1.1,0-2.05-.9-2.05-2s.85-2,1.95-2h.1c1.1,0,2,.9,2,2s-.9,2-2,2Zm-9.1,0c-1.1,0-2.05-.9-2.05-2s.85-2,1.95-2h.1c1.1,0,2,.9,2,2s-.9,2-2,2Zm-9.1,0h-.1c-1.1,0-2-.9-2-2s.9-2,2-2h.1c1.1,0,2,.9,2,2s-.9,2-2,2Zm-9.1,0c-1.1,0-2.05-.9-2.05-2s.85-2,1.95-2h.1c1.1,0,2,.9,2,2s-.9,2-2,2Zm-9.1,0h-.1c-1.1,0-2-.9-2-2s.9-2,2-2h.1c1.1,0,2,.9,2,2s-.9,2-2,2Zm-9.1,0C1.26,4,.32,3.1,.32,2S1.17,0,2.27,0h.1c1.1,0,2,.9,2,2s-.9,2-2,2Z" style="fill: #e65568;"/>
    </g>
  </g>
</svg>