<?xml version="1.0" encoding="UTF-8"?>
<svg id="_レイヤー_2" data-name="レイヤー 2" xmlns="http://www.w3.org/2000/svg" width="172.16" height="35.61" viewBox="0 0 172.16 35.61">
  <g id="_レイアウト" data-name="レイアウト">
    <g>
      <g>
        <path d="M10.34,.26c-.07,.22-.14,.44-.23,.65h2.12v.79h-.57c-.16,.56-.4,1.03-.7,1.42,.39,.29,.86,.52,1.41,.66-.19,.19-.44,.56-.56,.8-.58-.19-1.06-.49-1.46-.83-.43,.35-.95,.61-1.55,.82-.1-.19-.38-.55-.56-.72l-.33,.43c-.2-.17-.58-.43-.92-.66v.89h-.88v-.8c-.35,.34-.76,.64-1.13,.84-.13-.19-.39-.47-.57-.63,.45-.18,.97-.5,1.35-.83h-.98V1.45h1.33v-.29h-1.52V.47h1.52V.04h.88V.47h1.52v.69h-1.52v.29h1.4v.47c.48-.47,.85-1.14,1.04-1.86l.91,.21Zm-3.6,5.5v1.29h1.13v-1.57h-2.84v-.8h6.71v.8h-2.87v.4h2.19v.74h-2.19v.43h3.4v.82H4.52v-.82h1.25v-1.29h.97Zm-1.17-3.27h.54v-.46h-.54v.46Zm1.42,0h.57v-.46h-.57v.46Zm1.41,1.15l-.14,.19c.59-.16,1.09-.4,1.49-.71-.2-.25-.36-.49-.5-.75-.12,.14-.25,.28-.37,.4-.1-.13-.31-.36-.48-.54v.86h-1.07l1.08,.56Zm1.36-1.95c.13,.28,.32,.57,.55,.83,.17-.25,.3-.52,.4-.83h-.95Z" style="fill: #0050c1;"/>
        <path d="M13.87,3.31V1.48h-.83V.54h4.45v.94h-.71v1.83h.82v.94h-.82v3.74h-.99v-3.74h-.98c-.04,1.39-.27,2.77-1.28,3.81-.16-.2-.52-.54-.75-.69,.82-.87,1.03-1.99,1.08-3.12h-.97v-.94h.98Zm.95-1.83v1.83h.97V1.48h-.97Zm6.05,3.65c-.72,1.24-1.84,2.21-3.08,2.85-.16-.25-.46-.6-.71-.82,1.13-.49,2.25-1.35,2.83-2.4l.97,.37Zm-.32-4.57c-.63,.84-1.56,1.58-2.43,2.09-.17-.22-.47-.53-.72-.72,.78-.39,1.71-1.08,2.19-1.76l.96,.39Zm.14,2.33c-.65,.86-1.59,1.67-2.46,2.21-.17-.22-.46-.52-.71-.71,.8-.43,1.74-1.16,2.24-1.89l.93,.39Z" style="fill: #0050c1;"/>
        <path d="M26.65,2.91V.07h1.06v3.97c.54,.47,1.14,.87,1.77,1.14-.24,.2-.57,.61-.74,.88-.36-.19-.7-.41-1.03-.68v2.6h-1.06v-3.58c-.38-.42-.73-.89-1.03-1.37-.64,2.41-1.82,4.03-3.34,4.89-.17-.22-.56-.6-.81-.76,.93-.48,1.72-1.21,2.3-2.19-.33-.31-.81-.68-1.27-.97-.13,.18-.28,.35-.43,.5-.18-.17-.6-.51-.85-.65,.94-.86,1.63-2.28,2-3.8l1.02,.2c-.09,.36-.19,.69-.31,1.03h1.18l.18-.03,.67,.23c-.04,.25-.08,.51-.14,.75l.32-.12c.14,.27,.32,.55,.52,.81Zm-3.63,.31c.42,.25,.87,.55,1.21,.83,.23-.54,.42-1.14,.54-1.81h-1.25c-.16,.35-.33,.67-.51,.98Z" style="fill: #0050c1;"/>
        <path d="M33.2,.95c-.33,.12-.7,.23-1.09,.32v1.16h1.12v.94h-1.12v.08c.24,.22,.94,1.03,1.1,1.24l-.58,.8c-.11-.24-.31-.6-.52-.93v3.45h-.98v-3.05c-.27,.65-.59,1.25-.92,1.68-.09-.29-.31-.71-.47-.97,.47-.55,.96-1.47,1.26-2.29h-1.15v-.94h1.29v-.97c-.32,.05-.65,.1-.96,.14-.03-.22-.16-.57-.27-.79,.97-.14,2.03-.4,2.74-.69l.57,.83Zm2.61,4.09V.04h1.01V4.86l.84-.14,.16,.96-1,.18v2.13h-1.01v-1.96l-2.57,.45-.16-.97,2.73-.47Zm-1.84-2.26c.49,.35,1.11,.86,1.4,1.23l-.69,.66c-.26-.38-.86-.93-1.35-1.3l.65-.58Zm.32-2.22c.47,.34,1.05,.85,1.31,1.22l-.71,.64c-.24-.36-.8-.91-1.26-1.29l.66-.57Z" style="fill: #0050c1;"/>
        <path d="M41.81,4.02c0,.46-.37,.82-.82,.82s-.83-.36-.83-.82,.37-.82,.83-.82,.82,.36,.82,.82Z" style="fill: #0050c1;"/>
        <path d="M46.3,1.39v2.86c0,.21,0,.54,.03,.74h-1.23c0-.16,.04-.49,.04-.75V1.39c0-.16,0-.46-.03-.65h1.22c-.02,.19-.03,.38-.03,.65Zm3.92,.13v1.68c0,1.82-.36,2.61-.98,3.3-.56,.61-1.44,1.02-2.06,1.22l-.88-.93c.84-.19,1.52-.52,2.03-1.07,.58-.64,.69-1.27,.69-2.59V1.52c0-.34-.02-.61-.05-.85h1.28c-.02,.24-.03,.51-.03,.85Z" style="fill: #0050c1;"/>
        <path d="M58.6,2.79c-.14,.81-.37,1.63-.79,2.4-.68,1.25-1.95,2.15-3.46,2.54l-.88-1.02c.38-.07,.85-.19,1.19-.33,.7-.26,1.45-.76,1.92-1.45,.43-.62,.65-1.42,.75-2.18h-4.2v1.24c0,.19,0,.46,.03,.63h-1.17c.03-.21,.04-.48,.04-.71v-1.47c0-.19,0-.53-.04-.73,.29,.03,.54,.04,.86,.04h1.81v-.65c0-.24,0-.41-.07-.78h1.3c-.04,.36-.06,.54-.06,.78v.65h1.47c.36,0,.56-.04,.7-.09l.74,.45c-.07,.19-.13,.51-.17,.68Z" style="fill: #0050c1;"/>
        <path d="M60.59,4.34l.9-.72c.34,.25,.9,.71,1.43,1.18,.96-.76,1.75-1.74,2.15-2.44h-4.48c-.34,0-.8,.04-.97,.06V1.23c.22,.03,.69,.08,.97,.08h4.7c.32,0,.61-.03,.79-.09l.85,.69c-.12,.14-.22,.25-.29,.36-.61,.99-1.69,2.35-2.89,3.31,.48,.48,.98,1.03,1.31,1.43l-.99,.79c-.36-.47-1.07-1.26-1.62-1.83-.49-.5-1.35-1.26-1.86-1.63Z" style="fill: #0050c1;"/>
        <path d="M68.29,3.24h2.39v-1.2c-.81,.07-1.7,.09-2.27,.11l-.26-.98c.64,.02,1.96,0,2.89-.14,.85-.12,1.71-.31,2.13-.51l.69,.93c-.29,.07-.51,.13-.65,.16-.42,.11-.91,.2-1.42,.28v1.35h2.13c.19,0,.58-.03,.77-.05v1.09c-.23-.02-.52-.03-.75-.03h-2.19c-.14,1.42-.75,2.63-2.17,3.49l-1.08-.74c1.29-.59,1.96-1.5,2.13-2.75h-2.33c-.26,0-.58,.02-.8,.03v-1.09c.23,.03,.52,.05,.78,.05Z" style="fill: #0050c1;"/>
        <path d="M78.67,.95c-.33,.12-.7,.23-1.09,.32v1.16h1.12v.94h-1.12v.08c.24,.22,.94,1.03,1.1,1.24l-.58,.8c-.11-.24-.31-.6-.52-.93v3.45h-.98v-3.05c-.27,.65-.59,1.25-.92,1.68-.09-.29-.31-.71-.47-.97,.47-.55,.96-1.47,1.26-2.29h-1.15v-.94h1.29v-.97c-.32,.05-.65,.1-.96,.14-.03-.22-.16-.57-.27-.79,.97-.14,2.03-.4,2.74-.69l.57,.83Zm2.61,4.09V.04h1.01V4.86l.84-.14,.16,.96-1,.18v2.13h-1.01v-1.96l-2.57,.45-.16-.97,2.73-.47Zm-1.84-2.26c.49,.35,1.11,.86,1.4,1.23l-.69,.66c-.26-.38-.86-.93-1.35-1.3l.65-.58Zm.32-2.22c.47,.34,1.05,.85,1.31,1.22l-.71,.64c-.24-.36-.8-.91-1.26-1.29l.66-.57Z" style="fill: #0050c1;"/>
        <path d="M87.97,4.02c0,.59-.49,1.08-1.08,1.08s-1.08-.49-1.08-1.08,.49-1.08,1.08-1.08,1.08,.49,1.08,1.08Z" style="fill: #0050c1;"/>
        <path d="M92.62,1.39v2.86c0,.21,0,.54,.03,.74h-1.23c0-.16,.04-.49,.04-.75V1.39c0-.16,0-.46-.03-.65h1.22c-.02,.19-.03,.38-.03,.65Zm3.92,.13v1.68c0,1.82-.36,2.61-.98,3.3-.56,.61-1.44,1.02-2.06,1.22l-.88-.93c.84-.19,1.52-.52,2.03-1.07,.58-.64,.69-1.27,.69-2.59V1.52c0-.34-.02-.61-.05-.85h1.28c-.02,.24-.03,.51-.03,.85Z" style="fill: #0050c1;"/>
        <path d="M99.89,1.23l1.24,.25c-.07,.25-.17,.66-.2,.85-.12,.6-.42,1.76-.72,2.55-.31,.82-.8,1.79-1.25,2.42l-1.19-.5c.52-.69,1.02-1.61,1.31-2.35,.38-.94,.7-2.13,.8-3.22Zm2.15,.25l1.13-.36c.35,.66,.93,1.96,1.25,2.78,.3,.77,.75,2.12,.98,2.96l-1.25,.41c-.24-1-.54-2.07-.88-2.99-.32-.89-.87-2.13-1.23-2.79Z" style="fill: #0050c1;"/>
        <path d="M108.05,1.63v1.6c1-.25,2.18-.62,2.93-.94,.3-.12,.59-.25,.92-.46l.46,1.08c-.33,.14-.71,.3-.99,.4-.86,.34-2.22,.76-3.32,1.03v1.57c0,.36,.17,.46,.55,.53,.25,.03,.6,.05,.98,.05,.88,0,2.25-.11,2.95-.3v1.24c-.8,.12-2.08,.18-3.01,.18-.55,0-1.06-.03-1.42-.09-.74-.14-1.16-.54-1.16-1.27V1.63c0-.19-.03-.62-.07-.88h1.25c-.04,.26-.07,.64-.07,.88Zm4.39-.08l-.69,.29c-.17-.35-.43-.85-.66-1.18l.67-.27c.21,.31,.52,.85,.68,1.16Zm1.01-.39l-.67,.29c-.18-.36-.45-.85-.69-1.17l.67-.27c.23,.31,.54,.86,.69,1.15Z" style="fill: #0050c1;"/>
        <path d="M115.77,1.39v2.86c0,.21,0,.54,.03,.74h-1.23c0-.16,.04-.49,.04-.75V1.39c0-.16,0-.46-.03-.65h1.22c-.02,.19-.03,.38-.03,.65Zm3.92,.13v1.68c0,1.82-.36,2.61-.98,3.3-.56,.61-1.44,1.02-2.06,1.22l-.88-.93c.84-.19,1.52-.52,2.03-1.07,.58-.64,.69-1.27,.69-2.59V1.52c0-.34-.02-.61-.05-.85h1.28c-.02,.24-.03,.51-.03,.85Z" style="fill: #0050c1;"/>
        <path d="M121.88,2.96h5.55c.18,0,.54-.02,.77-.05v1.1c-.21-.02-.53-.03-.77-.03h-2.04c-.05,.87-.24,1.58-.54,2.18-.3,.58-.95,1.24-1.7,1.63l-.99-.72c.6-.23,1.19-.72,1.53-1.21,.35-.53,.49-1.16,.53-1.87h-2.33c-.25,0-.58,.02-.81,.03v-1.11c.25,.03,.55,.05,.81,.05Zm1.08-2.16h3.4c.29,0,.63-.02,.92-.06V1.84c-.29-.02-.62-.03-.92-.03h-3.4c-.3,0-.65,.02-.92,.03V.75c.28,.04,.63,.06,.91,.06Z" style="fill: #0050c1;"/>
        <path d="M130.54,3.37h4.55c.4,0,.77-.03,.99-.05v1.33c-.2,0-.64-.04-.99-.04h-4.55c-.48,0-1.05,.03-1.36,.04v-1.33c.3,.03,.92,.05,1.36,.05Z" style="fill: #0050c1;"/>
        <path d="M139.66,3.66l-.62,.95c-.48-.33-1.36-.91-1.93-1.2l.62-.94c.57,.3,1.5,.89,1.93,1.19Zm.69,1.94c1.44-.8,2.62-1.96,3.29-3.18l.65,1.15c-.79,1.17-1.98,2.24-3.37,3.04-.86,.49-2.07,.91-2.83,1.05l-.64-1.12c.95-.16,1.96-.44,2.89-.95Zm.62-3.85l-.64,.94c-.47-.33-1.35-.91-1.91-1.22l.62-.93c.56,.3,1.48,.91,1.93,1.21Z" style="fill: #0050c1;"/>
        <path d="M146.06,6.55h3.2v-1.13h-2.7c-.32,0-.73,0-.92,.02v-1c.22,.02,.6,.03,.92,.03h2.7v-1.02h-2.79c-.31,0-.85,.02-1.05,.03v-1.02c.22,.03,.74,.04,1.05,.04h3.2c.2,0,.52,0,.65-.02,0,.11,0,.39,0,.57V7.3c0,.14,0,.42,0,.58h-1.07v-.34s-3.2,0-3.2,0c-.24,0-.58,.02-.73,.03v-1.04c.14,.02,.43,.03,.74,.03Z" style="fill: #0050c1;"/>
        <path d="M155.1,5.34c1.45-.86,2.55-2.15,3.08-3.29l.66,1.19c-.64,1.14-1.77,2.31-3.13,3.13-.85,.52-1.95,.99-3.14,1.19l-.71-1.12c1.32-.19,2.42-.62,3.24-1.11Zm0-2.74l-.86,.88c-.44-.47-1.5-1.4-2.12-1.83l.8-.85c.59,.4,1.69,1.28,2.18,1.8Z" style="fill: #0050c1;"/>
        <path d="M162.64,.95c-.33,.12-.7,.23-1.09,.32v1.16h1.12v.94h-1.12v.08c.24,.22,.94,1.03,1.1,1.24l-.58,.8c-.11-.24-.31-.6-.52-.93v3.45h-.98v-3.05c-.27,.65-.59,1.25-.92,1.68-.09-.29-.31-.71-.47-.97,.47-.55,.96-1.47,1.26-2.29h-1.15v-.94h1.29v-.97c-.32,.05-.65,.1-.96,.14-.03-.22-.16-.57-.27-.79,.96-.14,2.03-.4,2.74-.69l.57,.83Zm2.61,4.09V.04h1.01V4.86l.84-.14,.16,.96-1,.18v2.13h-1.01v-1.96l-2.57,.45-.16-.97,2.73-.47Zm-1.84-2.26c.49,.35,1.11,.86,1.4,1.23l-.69,.66c-.26-.38-.86-.93-1.36-1.3l.65-.58Zm.32-2.22c.47,.34,1.05,.85,1.31,1.22l-.71,.64c-.24-.36-.8-.91-1.26-1.29l.66-.57Z" style="fill: #0050c1;"/>
      </g>
      <g>
        <path d="M1.87,33.05l-1.87-2.66c2.12-1.13,4.82-3.22,6.27-4.82l1.87,2.41c-1.38,1.48-3.64,3.47-6.27,5.07Zm8.56-1.7c1.25,0,2.14-.44,2.14-1.62,0-1.48-1.7-3.69-2.8-4.8-.64-.61-1.45-1.33-2.29-1.94l2.41-2.02c.74,.74,1.38,1.33,1.99,1.99,2.66,2.66,4.11,4.85,4.11,7.13,0,3.3-2.36,4.28-4.89,4.28-1.38,0-2.78-.17-3.99-.37l-.47-3.25c1.35,.39,2.61,.59,3.79,.59Zm1.94-13.06c-1.06-.71-3.05-1.75-4.92-2.41l1.82-2.26c2.04,.76,4.67,1.89,6.35,2.93l.74,1.92c-.66,.54-2.56,2.07-3.54,2.75l-1.99-1.8c.59-.42,1.21-.86,1.55-1.13Zm4.03,6.25l2.66-1.4c1.53,1.87,3.44,5.63,4.18,7.92l-2.98,1.6c-.59-2.46-2.21-6.05-3.86-8.12Z" style="fill: #0050c1;"/>
        <path d="M31,17.13c-.12,2.66-.32,8.14-.32,11.22,0,2.48,1.5,3.3,3.42,3.3,4.06,0,6.62-2.36,8.41-5.04l2.24,2.73c-1.6,2.36-5.09,5.63-10.7,5.63-4.03,0-6.62-1.77-6.62-5.95,0-3.3,.22-9.77,.22-11.88,0-1.18-.1-2.36-.3-3.32l3.96,.05c-.15,1.03-.27,2.29-.32,3.27Zm8.98,2.66l-2.19,.96c-.74-1.57-1.38-2.75-2.26-4.01l2.14-.91c.69,1.03,1.77,2.83,2.31,3.96Zm3.37-1.45l-2.14,1.03c-.79-1.55-1.45-2.68-2.36-3.91l2.12-.98c.71,1.01,1.84,2.75,2.39,3.86Z" style="fill: #0050c1;"/>
        <path d="M52.52,18.63c-.02,1.6,0,3.44,.15,5.21,.34,3.54,1.08,5.98,2.63,5.98,1.16,0,2.14-2.88,2.61-4.85l2.46,3c-1.62,4.28-3.17,5.78-5.14,5.78-2.71,0-5.04-2.44-5.73-9.03-.25-2.26-.27-5.14-.27-6.64,0-.69-.05-1.75-.2-2.51l3.79,.05c-.17,.89-.29,2.31-.29,3Zm17.07,10.31l-3.25,1.25c-.37-3.96-1.67-9.94-4.35-12.99l3.12-1.01c2.34,2.83,4.21,8.98,4.48,12.74Z" style="fill: #0050c1;"/>
        <path d="M90.06,12.95c-.2,.64-.42,1.28-.66,1.89h6.15v2.29h-1.65c-.47,1.62-1.16,3-2.04,4.13,1.13,.84,2.48,1.5,4.11,1.92-.54,.54-1.28,1.62-1.62,2.31-1.67-.57-3.08-1.43-4.26-2.41-1.25,1.01-2.75,1.77-4.5,2.39-.29-.54-1.11-1.6-1.62-2.09l-.96,1.25c-.59-.49-1.7-1.25-2.66-1.92v2.58h-2.56v-2.34c-1.01,.98-2.21,1.87-3.27,2.44-.37-.57-1.13-1.38-1.65-1.82,1.3-.52,2.83-1.45,3.91-2.41h-2.85v-4.77h3.86v-.84h-4.43v-1.99h4.43v-1.25h2.56v1.25h4.4v1.99h-4.4v.84h4.06v1.35c1.4-1.38,2.46-3.32,3.03-5.41l2.63,.61Zm-10.45,15.99v3.74h3.27v-4.55h-8.24v-2.34h19.48v2.34h-8.34v1.16h6.37v2.14h-6.37v1.25h9.89v2.39h-22.51v-2.39h3.62v-3.74h2.83Zm-3.39-9.49h1.57v-1.33h-1.57v1.33Zm4.13,0h1.65v-1.33h-1.65v1.33Zm4.08,3.35l-.42,.54c1.72-.47,3.17-1.16,4.33-2.07-.57-.71-1.06-1.43-1.45-2.16-.34,.42-.71,.81-1.08,1.16-.29-.37-.89-1.06-1.4-1.57v2.48h-3.1l3.12,1.62Zm3.94-5.66c.39,.81,.93,1.65,1.6,2.41,.49-.71,.88-1.5,1.16-2.41h-2.75Z" style="fill: #0050c1;"/>
        <path d="M101.08,21.81v-5.31h-2.41v-2.73h12.94v2.73h-2.07v5.31h2.39v2.73h-2.39v10.87h-2.88v-10.87h-2.85c-.12,4.03-.79,8.04-3.71,11.07-.47-.59-1.5-1.57-2.17-2.02,2.39-2.53,3-5.78,3.12-9.05h-2.83v-2.73h2.85Zm2.75-5.31v5.31h2.83v-5.31h-2.83Zm17.56,10.6c-2.09,3.59-5.34,6.42-8.95,8.26-.47-.74-1.33-1.75-2.07-2.39,3.3-1.43,6.54-3.94,8.22-6.96l2.8,1.08Zm-.93-13.28c-1.84,2.44-4.53,4.6-7.06,6.08-.49-.64-1.35-1.53-2.09-2.09,2.26-1.13,4.97-3.12,6.35-5.12l2.8,1.13Zm.42,6.76c-1.89,2.51-4.62,4.85-7.16,6.42-.49-.64-1.33-1.5-2.07-2.07,2.31-1.25,5.07-3.37,6.52-5.49l2.71,1.13Z" style="fill: #0050c1;"/>
        <path d="M138.97,20.65V12.39h3.08v11.54c1.57,1.35,3.32,2.53,5.14,3.32-.69,.59-1.65,1.77-2.14,2.56-1.03-.54-2.04-1.21-3-1.97v7.55h-3.08v-10.4c-1.11-1.23-2.12-2.58-3-3.98-1.87,6.99-5.29,11.71-9.72,14.22-.49-.64-1.62-1.75-2.36-2.21,2.71-1.4,4.99-3.52,6.69-6.37-.96-.91-2.36-1.97-3.69-2.83-.39,.52-.81,1.01-1.25,1.45-.52-.49-1.75-1.48-2.46-1.89,2.73-2.48,4.72-6.62,5.8-11.04l2.95,.59c-.27,1.03-.57,2.02-.91,3h3.42l.52-.1,1.94,.66c-.12,.74-.25,1.48-.39,2.16l.93-.34c.42,.79,.93,1.6,1.52,2.36Zm-10.55,.91c1.21,.71,2.53,1.6,3.52,2.41,.66-1.57,1.21-3.32,1.57-5.26h-3.62c-.47,1.01-.96,1.94-1.48,2.85Z" style="fill: #0050c1;"/>
        <path d="M158.75,14.94c-.96,.34-2.04,.66-3.17,.93v3.37h3.25v2.73h-3.25v.22c.69,.64,2.73,3,3.2,3.59l-1.7,2.31c-.32-.69-.91-1.75-1.5-2.71v10.01h-2.85v-8.85c-.79,1.89-1.72,3.64-2.68,4.87-.27-.84-.91-2.07-1.38-2.8,1.38-1.6,2.78-4.26,3.67-6.64h-3.34v-2.73h3.74v-2.8c-.93,.15-1.89,.3-2.78,.39-.1-.64-.47-1.65-.79-2.29,2.8-.42,5.9-1.16,7.95-2.02l1.65,2.41Zm7.58,11.88V12.31h2.93v14l2.44-.42,.47,2.78-2.9,.52v6.2h-2.93v-5.71l-7.45,1.3-.47-2.8,7.92-1.35Zm-5.34-6.57c1.43,1.01,3.22,2.51,4.06,3.57l-2.02,1.92c-.76-1.11-2.51-2.71-3.94-3.79l1.89-1.7Zm.94-6.44c1.35,.98,3.05,2.46,3.81,3.54l-2.07,1.84c-.69-1.06-2.31-2.66-3.67-3.74l1.92-1.65Z" style="fill: #0050c1;"/>
      </g>
    </g>
  </g>
</svg>