<?xml version="1.0" encoding="UTF-8"?>
<svg id="_レイヤー_2" data-name="レイヤー 2" xmlns="http://www.w3.org/2000/svg" width="125.97" height="17.05" viewBox="0 0 125.97 17.05">
  <g id="_レイアウト" data-name="レイアウト">
    <g>
      <path d="M1.37,15.18l-1.37-1.94c1.55-.83,3.53-2.36,4.59-3.53l1.37,1.76c-1.01,1.08-2.67,2.54-4.59,3.71Zm6.27-1.24c.92,0,1.57-.32,1.57-1.19,0-1.08-1.24-2.7-2.05-3.51-.47-.45-1.06-.97-1.67-1.42l1.76-1.48c.54,.54,1.01,.97,1.46,1.46,1.94,1.94,3.01,3.55,3.01,5.22,0,2.41-1.73,3.13-3.58,3.13-1.01,0-2.04-.13-2.92-.27l-.34-2.38c.99,.29,1.91,.43,2.77,.43Zm1.42-9.56c-.77-.52-2.23-1.28-3.6-1.76l1.33-1.66c1.5,.56,3.42,1.39,4.65,2.14l.54,1.4c-.49,.4-1.87,1.51-2.59,2.02l-1.46-1.31c.43-.31,.88-.63,1.13-.83Zm2.95,4.57l1.94-1.03c1.12,1.37,2.52,4.12,3.06,5.8l-2.18,1.17c-.43-1.8-1.62-4.43-2.83-5.94Z" style="fill: #0050c1;"/>
      <path d="M22.68,3.53c-.09,1.95-.23,5.96-.23,8.21,0,1.82,1.1,2.41,2.5,2.41,2.97,0,4.84-1.73,6.16-3.69l1.64,2c-1.17,1.73-3.73,4.12-7.83,4.12-2.95,0-4.84-1.3-4.84-4.36,0-2.41,.16-7.15,.16-8.7,0-.86-.07-1.73-.22-2.43l2.9,.04c-.11,.76-.2,1.67-.23,2.39Zm6.57,1.95l-1.6,.7c-.54-1.15-1.01-2.02-1.66-2.94l1.57-.67c.5,.76,1.3,2.07,1.69,2.9Zm2.47-1.06l-1.57,.76c-.58-1.13-1.06-1.96-1.73-2.86l1.55-.72c.52,.74,1.35,2.02,1.75,2.83Z" style="fill: #0050c1;"/>
      <path d="M38.43,4.63c-.02,1.17,0,2.52,.11,3.82,.25,2.59,.79,4.38,1.93,4.38,.85,0,1.57-2.11,1.91-3.55l1.8,2.2c-1.19,3.13-2.32,4.23-3.76,4.23-1.98,0-3.69-1.78-4.2-6.61-.18-1.66-.2-3.76-.2-4.86,0-.5-.04-1.28-.14-1.84l2.77,.04c-.13,.65-.22,1.69-.22,2.2Zm12.5,7.54l-2.38,.92c-.27-2.9-1.22-7.27-3.19-9.51l2.29-.74c1.71,2.07,3.08,6.57,3.28,9.33Z" style="fill: #0050c1;"/>
      <path d="M65.9,.47c-.14,.47-.31,.94-.49,1.39h4.5v1.67h-1.21c-.34,1.19-.85,2.2-1.49,3.03,.83,.61,1.82,1.1,3.01,1.4-.4,.4-.94,1.19-1.19,1.69-1.22-.41-2.25-1.04-3.12-1.76-.92,.74-2.02,1.3-3.29,1.75-.22-.4-.81-1.17-1.19-1.53l-.7,.92c-.43-.36-1.24-.92-1.94-1.4v1.89h-1.87v-1.71c-.74,.72-1.62,1.37-2.4,1.78-.27-.41-.83-1.01-1.21-1.33,.95-.38,2.07-1.06,2.86-1.76h-2.09V2.99h2.83v-.61h-3.24V.92h3.24V0h1.87V.92h3.22v1.46h-3.22v.61h2.97v.99c1.03-1.01,1.8-2.43,2.21-3.96l1.93,.45Zm-7.65,11.7v2.74h2.39v-3.33h-6.03v-1.71h14.26v1.71h-6.1v.85h4.66v1.57h-4.66v.92h7.24v1.75h-16.48v-1.75h2.65v-2.74h2.07Zm-2.48-6.95h1.15v-.97h-1.15v.97Zm3.02,0h1.21v-.97h-1.21v.97Zm2.99,2.45l-.31,.4c1.26-.34,2.32-.85,3.17-1.51-.41-.52-.77-1.04-1.06-1.58-.25,.31-.52,.59-.79,.85-.22-.27-.65-.77-1.03-1.15v1.82h-2.27l2.29,1.19Zm2.88-4.14c.29,.59,.68,1.21,1.17,1.76,.36-.52,.65-1.1,.85-1.76h-2.02Z" style="fill: #0050c1;"/>
      <path d="M73.96,6.95V3.06h-1.76V1.06h9.47v2h-1.51v3.89h1.75v2h-1.75v7.96h-2.11v-7.96h-2.09c-.09,2.95-.58,5.89-2.72,8.1-.34-.43-1.1-1.15-1.58-1.48,1.75-1.85,2.2-4.23,2.29-6.63h-2.07v-2h2.09Zm2.02-3.89v3.89h2.07V3.06h-2.07Zm12.86,7.76c-1.53,2.63-3.91,4.7-6.55,6.05-.34-.54-.97-1.28-1.51-1.75,2.41-1.04,4.79-2.88,6.01-5.1l2.05,.79Zm-.68-9.72c-1.35,1.78-3.31,3.37-5.17,4.45-.36-.47-.99-1.12-1.53-1.53,1.66-.83,3.64-2.29,4.65-3.75l2.05,.83Zm.31,4.95c-1.39,1.84-3.38,3.55-5.24,4.7-.36-.47-.97-1.1-1.51-1.51,1.69-.92,3.71-2.47,4.77-4.02l1.98,.83Z" style="fill: #0050c1;"/>
      <path d="M101.69,6.1V.05h2.25V8.5c1.15,.99,2.43,1.85,3.76,2.43-.5,.43-1.21,1.3-1.57,1.87-.76-.4-1.49-.88-2.2-1.44v5.53h-2.25v-7.62c-.81-.9-1.55-1.89-2.2-2.92-1.37,5.11-3.87,8.57-7.11,10.41-.36-.47-1.19-1.28-1.73-1.62,1.98-1.03,3.66-2.57,4.9-4.66-.7-.67-1.73-1.44-2.7-2.07-.29,.38-.59,.74-.92,1.06-.38-.36-1.28-1.08-1.8-1.39,2-1.82,3.46-4.84,4.25-8.08l2.16,.43c-.2,.76-.41,1.48-.67,2.2h2.5l.38-.07,1.42,.49c-.09,.54-.18,1.08-.29,1.58l.68-.25c.31,.58,.68,1.17,1.12,1.73Zm-7.72,.67c.88,.52,1.85,1.17,2.57,1.76,.49-1.15,.88-2.43,1.15-3.85h-2.65c-.34,.74-.7,1.42-1.08,2.09Z" style="fill: #0050c1;"/>
      <path d="M116.16,1.93c-.7,.25-1.49,.49-2.32,.68v2.47h2.38v2h-2.38v.16c.5,.47,2,2.2,2.34,2.63l-1.24,1.69c-.23-.5-.67-1.28-1.1-1.98v7.33h-2.09v-6.48c-.58,1.39-1.26,2.67-1.96,3.56-.2-.61-.67-1.51-1.01-2.05,1.01-1.17,2.03-3.12,2.68-4.86h-2.45v-2h2.74V3.02c-.68,.11-1.39,.22-2.03,.29-.07-.47-.34-1.21-.58-1.67,2.05-.31,4.32-.85,5.82-1.48l1.21,1.76Zm5.55,8.7V0h2.14V10.24l1.78-.31,.34,2.03-2.12,.38v4.54h-2.14v-4.18l-5.46,.95-.34-2.05,5.8-.99Zm-3.91-4.81c1.04,.74,2.36,1.84,2.97,2.61l-1.48,1.4c-.56-.81-1.84-1.98-2.88-2.77l1.39-1.24Zm.68-4.72c.99,.72,2.23,1.8,2.79,2.59l-1.51,1.35c-.5-.77-1.69-1.94-2.68-2.74l1.41-1.21Z" style="fill: #0050c1;"/>
    </g>
  </g>
</svg>