<?xml version="1.0" encoding="UTF-8"?>
<svg id="_レイヤー_2" data-name="レイヤー 2" xmlns="http://www.w3.org/2000/svg" width="23.31" height="4.38" viewBox="0 0 23.31 4.38">
  <g id="_レイアウト" data-name="レイアウト">
    <path d="M21.13,4.38h-.06c-1.21,0-2.19-.98-2.19-2.19s.98-2.19,2.19-2.19h.06c1.21,0,2.19,.98,2.19,2.19s-.98,2.19-2.19,2.19Zm-9.44,0c-1.21,0-2.22-.98-2.22-2.19s.95-2.19,2.16-2.19h.06c1.21,0,2.19,.98,2.19,2.19s-.98,2.19-2.19,2.19Zm-9.44,0h-.06C.98,4.38,0,3.4,0,2.19S.98,0,2.19,0h.06c1.21,0,2.19,.98,2.19,2.19s-.98,2.19-2.19,2.19Z" style="fill: #e65568;"/>
  </g>
</svg>