<?xml version="1.0" encoding="UTF-8"?><svg xmlns="http://www.w3.org/2000/svg" xmlns:xlink="http://www.w3.org/1999/xlink" viewBox="0 0 348.24 302.29"><defs><style>.cls-1{stroke:#fc8c24;}.cls-1,.cls-2,.cls-3{fill-rule:evenodd;}.cls-1,.cls-2,.cls-3,.cls-4{stroke-width:.55px;}.cls-1,.cls-5,.cls-3,.cls-4{fill:none;}.cls-1,.cls-3,.cls-4{stroke-linecap:round;stroke-linejoin:round;}.cls-2{fill:#fffbf3;stroke-miterlimit:10;}.cls-2,.cls-3,.cls-4{stroke:#e66268;}.cls-6{isolation:isolate;}.cls-7{fill:#dcdddd;mix-blend-mode:multiply;opacity:.8;}.cls-8{clip-path:url(#clippath);}.cls-5{clip-rule:evenodd;}.cls-9{font-size:18px;letter-spacing:0em;}.cls-9,.cls-10{fill:#ec6051;font-family:TsukuARdGothic-Bold, 'TsukuARdGothic Bold-83pv-RKSJ-H';}.cls-10{font-size:15px;letter-spacing:0em;}.cls-11{fill:#fbbd40;}</style><clipPath id="clippath"><path class="cls-5" d="M7.21,0V302.29H348.24V0H7.21Z"/></clipPath></defs><g class="cls-6"><g id="_イヤー_2"><g id="_イアウト"><g><g><g class="cls-8"><g><g><path class="cls-1" d="M351.2,243.77l-4.66-.31-5.21,1.32,.27,1.21-1.51,.39,.73,2.74-16.25,4.46,4.12,13.98,21.52-4.01,.98,.9v-.73l-.42-.39,.42-.43v-19.13h0Z"/><path class="cls-1" d="M4.88,276.5l-.08-.29-.75,1.16v5.34l1.01-.87,.6-2.24-.17-1.19-.88-.49,.27-1.42h0Zm42.44-34.05l-.11-3.56-.82-1.89,1.58-1.53,.29-1.38,1.07-1.09-.12-2.01,1.35-1.42-1.06-1.64,.23-1.52-1.09-3.32,2.61-2.41-.49-3.28,.53-1.37-.53-1.49,4.1-3.05-3.03-4.08,.13-1.59-.91-3.39,.33-3.07-.67-2.74,.74-5.81,.52-.96-.98-2.81,2.47-3.78-1.44-2.11-1.66-.65,.04-.8-1.57-.39-3.08-2.07-5.63-.56-1.37-.95-2.01-1.66-2.02-.3-.18-1.92-4.55-9.47-1.41-1.71-.06-3.12-.88-3.35-1.63-1.46-1.96-.03-.66-1.11-2.07-.66-.7,1.48-4.85,.46-4.76,1.58-1.93,1.23,3.72,1.03,.25,.66-.86,.76-3.26-1.09-3.09,1.03v-1.65l1.08-1.63-1.06-5.1-1.56-.09,1.04-1.18-.13-1.59-1.19-1.05v97.35l2.29,4.26-1.66,.79-.63-.84v.54l2.14,2.75h1.08l2.71,3.01,.46,1.41,2.27,.47,2.55,1.8,1.96-.6,3.93-2.66,.32,.34-.18-.44,.67-.4,3.91-.64,.64,.14,.16,.7,.03-.83,1.51,.02,.65-.57-.09-2.25,2.43-1.58,4.71,.61,1.52,2.11,1.37,.28-1.28-.41-1.42-2.28,1.43-1.01-1.61,.4-3.88-.84,.55-1.21-.87,.29-.31-1.26,1.07-.56,.46,.63-.29,.76,3.42-1.99,2.8,1.01-.91,1.46,.66-.78,2.04-.04-.43,.98h-1.34l1.39,.09-.02,1.74-.64,.71,7.45-.35,.25-6.51h0ZM4.05,145.5l.73-.86-.13-1.59-.6-.06v2.51h0Z"/><path class="cls-3" d="M324.58,253.58l16.25-4.46-.73-2.74,1.51-.39-.27-1.21,5.21-1.32,4.66,.31V7.66l-1.93,.96-3.43,.72-2.11,1.75-.02,1.61-3.44-.86-1.8,.98-.55,.62,.06,1.31-2.67,3.12-2.97-.25-5.12,3.1-3.15,.41-1.74,2.96-.23,1.64-.78,.7-3.13-2.56-1.64-2.36-.3-1.39,.39-2-1.32-3.13-2.08-1.86-1.26-2.89-2.6-1.53v-2.26l-1.12-.98-2.97,1.49-1-.3-1.63,2.09-2,.32-1,2.48,.02,1.68-1.53,1.36-3.27,.83-1.3-.24-2.02,1.38-2.75-.6-8.19,2.61-9.28-1.49-.74-1.08-3.11-1.46-2.28-3.92-1.37-1.05-.48-1.46-2.85,.73-2.09-.85-2.46,.46-2.04-1.4-2.76,.11-1.21,1.21-3.84,1.17-1.87,2.54-.76-.29-1.97,2.97-1.04,.52-.07,2.1,.89,3.03-1.64,4.12-.16,6.24-.86,2.47-4.35,2.05-3.06,3.74-.08,2.98-5,3.59-.09,4.1,3.77,7.73-.37,2.06-2.08,4.52,.04,1.48-1.2,.61,1.35,1.22-.2,4.48-1.4,2.84,.63,2.55-.16,1.62,2.69,7.19-.46,2.27,.75,1.48,.38,2.67,2,3.34,1.12,.91-.06,3.95,1.14,.56,.1,1.65,4.56,3.3,1.33,2.5-.42,1.25,.88,2.48-.14,1.36,2.3,2.46,1.17,4.31,5,1.91,3.17-.26,.59,2,3.82,3.94,5.84,4.26,1.08-1.47,3.79-1.75,2.21,.38,2.11-.65,2.22,.89,4.5-.64,4.42,1.21,3.62,.1,.95,2.55,1.44,1.17,2.31-.27,1.31,.61,6.08,.43-.87-2.73,.98,.72,3.7,.43,2.07,1.12,1.22,2.71,1.72,.67,.23,1.53,.77,.76,.57,3.26,1.34,.71,2.92,3.2,.04,2.36,3.05,1.3,.48,2.07-.35,1.35-2.02,2.41-3.18,.21-1.23,2.77-2.23-3.59-.76,.29-.41-1.06-1.73,1.68-4.02-2.68-3.8,.63-5.42,2.21,4.03,5.88,1.13,2.61,2.27,2.66,.88,4.22-.25,3.78,3.09,1.23,1,3.06,1.89,1.76,2.62,1.16,.54,2.09-.12,3.97,.02,.54,.07-1.6,.18-.09,.29,1.84,.31-.71,2.63,1.44,.08-.69,1.47,.34,1.1,1.12,.35-.33-.29-.56,1.84,.84,6.52,5.94,.51-.11,.56-1.71,.15,1.92,1.34-1.65-.8,2.33,3.64,1,1.45,1.33-.54,.94,.84-.91,2.74,2.72,2.17,3.03-.29,.31,.9,.66,2.24,4.27-.22,.81,1.27,1.26-.03,1.35-1.14,.58,1.26-.52,.13-1.37-.62-2.04,.72-.43,.41,2.05,1.21,1.22-2.22,1.23,2.35-.92,2.12,3.21,.13,1.78,.86,1.26-.56,.57,1.93-.13,.08,2.83-2.11,.7-.24-.56-24.63,8.07,6.01,20.82h0Zm-14.98-62.09l-.2,1.1-.64,.23-.49,.82-.88,6.81,1.06-6.75,.96-.96-.18,2.08,.42-3.28,3.37,.53-1.61,10.17-2.83-.37,.26-3.01-.39,2.92h-.81l3.73,.58-1.4,.21,1.27,.3-.5,3.21,4.22,14.35,5.35-1.54,.92,3.16,13.67-3.87-1.14-6.05-5.39-8.66-2.94-2.48-3.66-1.64-7.76-7.14-4.39-.73h0Z"/><path class="cls-3" d="M118.64-3.16v.09l1.89-.08,1.17,1.3-.08,3.82-3.22,3.42-2.44,.84-.74,.81,.95,2.31,3.2,3.55,1.96,4.02,2.16,1.46,.98,1.43,4.65,2.03,3.74-1.35,2.53,3.35,1.47,6.3-3.88,7.71,.21,1.7-.49,1.72,1.88,4.51,3.13,2.98,10.01-4.2h6.79l2.32-.98,1.6,.31,3.08-1.15,2.02-.04,3.7,1.89,.53,1.7,5.33,5.39-1.04,1.69,.03,1.07,1.83-.04-.03,.85,1.79,.28,.68,.81,1.57,.35,1.08-.43,1.93-3.51,3-.48,3.45,.86,3.55-1.62,3.47,3.07,3.4,.91,2.14,3.09,3.99,2.75,1.59-1.18,2.04-.38,3.13,1.93,3.96,.18,4.4,1.47,1.33,1.73,3.83,2.35,2.01-1.34h0l1.2-.61-.04-1.48,2.08-4.52,.37-2.07-3.77-7.73,.09-4.1,5-3.59,.08-2.98,3.06-3.74,4.35-2.05,.86-2.47,.16-6.24,1.64-4.12-.89-3.03,.07-2.1,1.04-.52,1.97-2.97,.76,.29,1.87-2.54,3.84-1.17,1.21-1.21,2.76-.11,2.04,1.4,2.46-.46,2.09,.85,2.85-.73,.48,1.46,1.37,1.05,2.28,3.92,3.11,1.46,.74,1.08,9.28,1.49,8.19-2.61,2.75,.6,2.02-1.38,1.3,.24,3.27-.83,1.53-1.36-.02-1.68,1-2.48,2-.32,1.63-2.09,1,.3,2.97-1.49,1.12,.98v2.26l2.6,1.53,1.26,2.89,2.08,1.86,1.32,3.13-.39,2,.3,1.39,1.64,2.36,3.13,2.56,.78-.7,.23-1.64,1.74-2.96,3.15-.41,5.12-3.1,2.97,.25,2.67-3.12-.06-1.31,.55-.62,1.8-.98,3.44,.86,.02-1.61,2.11-1.75,3.43-.72,1.93-.96V-3.16"/><polyline class="cls-3" points="4.04 -3.16 4.04 142.99 4.64 143.05 4.77 144.64 4.05 145.5 4.05 145.82 5.23 146.87 5.36 148.46 4.31 149.64 5.88 149.73 6.93 154.83 5.85 156.46 5.85 158.11 8.93 157.08 12.2 158.17 13.06 157.42 12.81 156.76 9.09 155.72 11.02 154.49 15.78 152.91 20.63 152.44 21.33 150.96 23.4 151.62 24.06 152.74 26.02 152.77 27.65 154.23 28.52 157.57 28.58 160.69 30 162.4 34.55 171.87 34.73 173.79 36.76 174.1 38.76 175.76 38.76 175.76 38.76 175.76 40.8 174.15 42.66 170.72 46.66 166.71 47.95 163.55 49.91 162.92 52.09 160.73 52.57 157.86 53.56 157.03 54.06 155.57 57.06 154.01 62.09 154.62 66.51 152 68.84 148.71 69.97 149.16 71.42 151.72 71.96 154.11 71.83 156.78 77.56 155.93 81.69 156.11 82.14 154.68 83.74 154.96 85.77 157.1 85.56 158.34 86.07 160.23 84.88 163.15 84.51 165.69 87.32 166.85 89.72 166.4 92.29 162.68 94.75 162.14 94.75 158.24 92.79 155.96 94.4 153.98 94.45 153.18 93.33 153.32 93.13 152.75 94.57 151.91 100.59 154.39 101.72 153.99 104.49 152.35 102.25 149.58 105.73 148.12 106.65 148.85 107.45 151.82 111.19 151.83 111.96 148.75 110.92 147.19 108.98 146.77 106.95 144.84 103.09 143.47 102.13 140.95 99.98 139.65 98.77 135.88 96.87 135.16 95.5 132.54 95.54 129.43 94.97 128.04 95.43 126.9 96.73 125.7 98.8 124.91 100.19 122.26 102.58 121.3 103.8 119.39 103.73 117.43 107.11 114.34 108.49 112.03 106.38 103.36 104.06 102.51 101.53 100.06 98.48 94.9 101.18 92.41 101.52 90.97 103.55 89.06 104.58 85.95 106.91 83.81 114.04 82.13 119.56 79.31 120.78 77.86 124.24 75.77 122.84 71.7 123.01 66.97 121.96 64.49 123.62 59.93 127.28 57.86 128.46 54.09 133.89 51.31 135.82 49.15 137.71 48.75 134.58 45.77 132.7 41.27 133.19 39.55 132.98 37.85 136.86 30.14 135.39 23.84 132.86 20.49 129.12 21.84 124.47 19.81 123.5 18.38 121.33 16.92 119.37 12.9 116.17 9.35 115.23 7.04 115.97 6.23 118.41 5.39 121.63 1.97 121.71 -1.85 120.54 -3.15 118.64 -3.07 118.64 -3.16"/></g><path class="cls-2" d="M47.31,242.45l-.1,1.08,.56,.6,3.54,.3,4.05,1.59,4.41,3.44-.29,2.46-1.19,.52,.86,1.97-2.56,1.03,.56,3.32-.47-3.29,4.51-1.8,1.18,2.76-2.11,.92,.65,1.52,3.73-1.6,.75,2.26-2.9,.95,.27,.84,2.89-.96,.55,2.78-1.45,.2-.49,1.58,.55-.44,2.09,.42-.49,1.33-.42,.67-.5,.54,.62-.77-1.08-1.15-.35,.58-2.72,.23-.09-1.08-.92-1.54,.82,2.63-1.18,.06,1.11,.38-2.25,3.74-1.02,.82-.09,.88,.88,1.66,.9,.35-2.46,3.76,2.03-1.93,.52-1.61,.89,.3,.12,1.91-1,3.61-1.91-.51-.67,1.13,2.16,1.28-1.41,1.89-1.17,.31,.26,.37-3.27,.21-1.75-1.74-.42,.72-4.09,2.06-2.06-2.21-.33-1.57,1.14-2.34,2.11-1.73-3.88,2.34,.54,3.14,2.46,2.76-1.57,1.53-.12,1.7,.78,1.7-.27,.69,.52,.15-.19,.61,.56-.39-.17,.87,.89,.51,.39,1.41-.36,.91,.53,1,1.93-.07,.87-.65,.86,1.38,.28,.07,.56-.26-.67,.1-.48-.73,2.41-1.67,1.62,.58,.08,.61-.68,.43,1.4,.08-.64-1.22,1.64-.66,2.19,1.37,.22,1.11-1.19,.28,.67,.34,1.94-1.61,3.86-.37,3.02-3.8,.94-2.23,5.13-2.31,3.7-5.29,3.7-3.04,6.78-7.49,1.4-3.45-.22-.7,1.03-3.42-3.32-3.56-.62-2.12,1.52-2.33-1.65,2.09-.42,1.12,.8,1.81-.93,1.13-1.49-.73-.93-1.79,1.26-.4-.83-.43-.33-1.49,1.73,.02-.06-1.32-1.62,.07,.03-.68,.13-1.09,2.55-.1-.16-3.4,1.1-3.45-1.13-1.77-.42-3.87,2.28-2.81,4.58,.56-4.59-.65-2.45,2.91,.3,3.82-2.21-.62-.21-.74,.93,.06-1.04-.48-.15-1.49,.12-.7,1,.59,.34-.56-1.12-.65,1.17-3.29,1.66,1.01-.72-.49,.3-1.96,4.5,.64,.97-6.96-1.26-1.49-2.42,.3-1.79,3.41-2.33-.71,.82-1.62,.03-.24-.06-.05-.15-.03-1.19,2.97-1.39-.2v-.21l.86-2.29,1.26-.73,.55-1.45,.5,.18,1.53-4.1,.82-.74-1.76-1.5,1.36-3.1,1.02,.49-1.16,2.26h.55l.95-1.77,1.42,1.63-.55,2.2,1.2,2.55-.25,1.51,.4-1.54-1.2-2.58,1.54-3.9-.8-1.11,2.45-.37-.38-.36,.55-1.95,5,1.5-4.59-1.51,.99-4.31,3.33-8.18,.57-.7,4.13,1.76-5.43-2.55,5.14-6.39-4.06-3.98,2.5-1.71,7.36,6.64,1.12-1.21-1.13,1.06-4.83-4.36,5.35-5.71,4.74,4.42-3.84,4.27,3.46-3.71,5.47,5.09,.46-.48,3.86,3.89,1.28-1.34-.82,1.49,7.43,6.93,7.23-7.77,.82,.19,2.06,1.93-3.31,3.55,1.41,1.32,3.75-4.02-3.68-3.04-.02-.54,4.44-4.75,3.62-6.61,.91-.26,2.08-3.51-9.28-8.37,3.68-4.09,8.27,7.48,4.47-4.87,1.37,1.25,.5,1.27-.43-1.41-1.38-1.18,.44-.48-13.58-12.23,.12-3.47,1.68,.27,1.45,1.62,14.22,7.89-1.01,2.81,2.67,.97,.78-2.05,3.31,1.17-.36,3.49,.63,.91-.5-.94,.35-3.46,2.23,.06,.8,1.5-.3,3.62-1.62-.05,5.09,.44,11.47,5.36,2.73,.75,.62,1.24,1.61-.98,9.62,2.38,2.85,3-2.82,2.9,2.95-2.77,2.14,2.77-3.69-4.93,.21-2.32h2.52l-.27-.5h-2.41l-3.59-1.81-.21-2.47,.66-.03,.03-.53,3,.08-.31,1.21-.77,.49-.43,.48,1.52-.62,2.71,1.59,1.21-.98,.29,.3-.62,1.53,1.78,.93-1.75,2.41,1.05,.82,1.47-1.87,2.07,2.08-.89,.9,.93,.94,.77-.77,1.45,.88-4.24,4.06,1.49-1.21,5.29,5.8-1.78,1.61,.47,.13,.77-1.17,1.59,1.73-.44,.4,.09,1-.8,.71-1.72-1.83,2.37,2.61,2.2-1.67,1.12,.35,2.65-1.8,1.8,.71,5.72,4.7,.09-.12-.19-.24-.11-.28v-.56l.67,.61-.52,.13,.35,.43,6.03-.53,1.06-1.36,1.88-.95,4.03-.73,.6,.64-.43,.45,1.45,4.39,2.58,.29-2.54-.39-1.1-3.33,1.68-.57,1.35,.53,.2-.5,1.8,.76,.51,1.65-1.51,.52,4.68-1.38-3.04-10.36,.74-.19,2.72,10.45,1.19,2.57,2.73,3.44,3.02,1.85,.16-.5-3.54-2.12-1.61-2.46,3.55-3.51,4.59-1.74,1.93-.41,4.27,4.97,4.82,.91,1.75-.03-4.98-1-.47-1.86-1.76-.02-1.83-2.21,1.89-.11-.88-.08,.02-1.41-.66-.57,.18-3.49-3.05-.3-.74-.67,.26-1.02,1.14-.27,.03-2.21,5.84-.88,4.98,.56-.06,3.54-3.8,1.58,.95,.86,.81,3.45-.39,.59,.26,1.34,1.04,.95,1.56,.08-.83,1.22,3.65-2.69,4.04-.77,3.38,.38,.04,1.26,.57,.54,4.96-.61,4.39,.82,2.86,1.33,2.31-1.24,1.07-1.93,1.43-9.35-.31-1.69-1.73-1.24-14.02-2.42,.06-.79,1.33,.24,.28-.33-1.34,.09,.21-1.08,1.15-.17v.89l.17-.89,1.69-.26,.13-.51,3.03,.82,2.45,1.48,.15-1.06,.55,.79,5.4,.69,1.7,1.19,5.38,1.81,.12-3.97-.54-2.09-2.62-1.16-1.89-1.76-1-3.06-3.09-1.23,.25-3.78-.88-4.22-2.27-2.66-1.13-2.61-4.03-5.88,5.42-2.21,3.81-.63,4.02,2.68,1.73-1.68,.41,1.06,.76-.29,2.23,3.59,1.23-2.77,3.18-.21,2.02-2.41,.35-1.35-.48-2.07-3.05-1.3-.04-2.36-2.92-3.2-1.34-.71-.57-3.26-.77-.76-.23-1.53-1.72-.67-1.22-2.71-2.07-1.12-3.7-.43-.98-.72,.87,2.73-6.08-.43-1.31-.61-2.31,.27-1.44-1.17-.95-2.55-3.62-.1-4.42-1.21-4.5,.64-2.22-.89-2.11,.65-2.21-.38-3.79,1.75-1.08,1.47-5.84-4.26-3.82-3.94-.59-2-3.17,.26-5-1.91-1.17-4.31-2.3-2.46,.14-1.36-.88-2.48,.42-1.25-1.33-2.5-4.56-3.3-.1-1.65-1.14-.56,.06-3.95-1.12-.91-2-3.34-.38-2.67-.75-1.48,.46-2.27-2.69-7.19,.16-1.62-.63-2.55,1.4-2.84,.2-4.48-1.35-1.22-2.01,1.34-3.83-2.35-1.33-1.73-4.4-1.47-3.96-.18-3.13-1.93-2.04,.38-1.59,1.18-3.99-2.75-2.14-3.09-3.4-.91-3.47-3.07-3.55,1.62-3.45-.86-3,.48-1.93,3.51-1.08,.43-1.57-.35-.68-.81-1.79-.28,.03-.85-1.83,.04-.03-1.07,1.04-1.69-5.33-5.39-.53-1.7-3.7-1.89-2.02,.04-3.08,1.15-1.6-.31-2.32,.97h-6.79l-10.01,4.2-1.9,.4-1.92,2.15-5.43,2.79-1.18,3.77-3.66,2.06-1.66,4.56,1.04,2.48-.16,4.74,1.4,4.06-3.46,2.09-1.23,1.45-5.51,2.82-7.13,1.68-2.33,2.14-1.03,3.11-2.03,1.9-.34,1.44-2.71,2.49,3.06,5.16,2.53,2.45,2.32,.85,2.12,8.67-1.38,2.31-3.38,3.09,.07,1.96-1.22,1.91-2.4,.96-1.38,2.65-2.08,.79-1.29,1.2-.46,1.14,.57,1.39-.04,3.11,1.37,2.62,1.9,.72,1.21,3.76,2.14,1.31,.97,2.52,3.86,1.37,2.03,1.93,1.94,.42,1.04,1.56-.77,3.09h-3.74l-.8-2.99-.92-.73-3.48,1.46,2.24,2.76-2.77,1.64-1.13,.41-6.01-2.48-1.45,.84,.2,.57,1.12-.14-.06,.8-1.61,1.98,1.96,2.28v3.89l-2.46,.55-2.57,3.71-2.4,.45-2.81-1.17,.38-2.53,1.19-2.92-.5-1.89,.21-1.24-2.03-2.14-1.6-.28-.44,1.43-4.13-.18-5.74,.85,.13-2.67-.54-2.39-1.45-2.56-1.14-.46-2.32,3.29-4.42,2.62-5.03-.61-3,1.56-.5,1.45-.99,.83-.48,2.87-2.18,2.19-1.96,.64-1.29,3.16-4,4.01-1.86,3.43-2.04,1.6,1.37,.95,5.63,.56,3.08,2.07,1.57,.39-.04,.8,1.66,.65,1.44,2.11-2.47,3.79,.98,2.81-.52,.96-.74,5.81,.67,2.74-.33,3.07,.91,3.39-.13,1.59,3.03,4.08-4.1,3.05,.53,1.49-.53,1.37,.49,3.28-2.61,2.41,1.09,3.32-.23,1.52,1.06,1.64-1.35,1.42,.12,2.01-1.07,1.09-.29,1.38-1.58,1.53,.82,1.89,.11,3.56h0Zm135.41-2.74l-1.34-1.77-1.81-.92-.22,.82-3.02,2.94-.37-.45,.33,.47-.71,.43-1.76,.75-2.21-.76-2.37,1.41-.48-.58-.32,1.54,1.07,2.82,1.7,.33,.25-.72,2.34-.51,2.81,.61,1.95-.46,2.04,.94,1.43-2.13-.37-.88,2.13-3.73-.73-.14,.32-.84-.67,.82h0Z"/><path class="cls-4" d="M4.88,276.5l-.08-.29-.75,1.16v5.34l1.01-.87,.6-2.24-.17-1.19-.88-.49,.27-1.42h0Zm177.85-36.79l-1.34-1.77-1.81-.92-.22,.82-3.02,2.94-.37-.45,.33,.47-.71,.43-1.76,.75-2.21-.76-2.37,1.41-.48-.58-.32,1.54,1.07,2.82,1.7,.33,.25-.72,2.34-.51,2.81,.61,1.95-.46,2.04,.94,1.43-2.13-.37-.88,2.13-3.73-.73-.14,.32-.84-.67,.82h0Zm126.87-48.21l-.2,1.1-.64,.23-.49,.82-.88,6.81,1.06-6.75,.96-.96-.18,2.08,.42-3.28,3.37,.53-1.61,10.17-2.83-.37,.26-3.01-.39,2.92h-.81l3.73,.58-1.4,.21,1.27,.3-.5,3.21,4.22,14.35,5.35-1.54,.92,3.16,13.67-3.87-1.14-6.05-5.39-8.66-2.94-2.48-3.66-1.64-7.76-7.14-4.39-.73h0ZM4.04-3.16V243.17h0l2.29,4.26-1.66,.79-.63-.84v.54l2.14,2.75h1.08l2.71,3.01,.46,1.41,2.27,.47,2.55,1.8,1.96-.6,3.93-2.66,.32,.34-.18-.44,.67-.4,3.91-.64,.64,.14,.16,.7,.03-.83,1.51,.02,.65-.57-.09-2.25,2.43-1.58,4.71,.61,1.52,2.11,1.37,.28-1.28-.41-1.42-2.28,1.43-1.01-1.61,.4-3.88-.84,.55-1.21-.87,.29-.31-1.26,1.07-.56,.46,.63-.29,.76,3.42-1.99,2.8,1.01-.91,1.46,.66-.78,2.04-.04-.43,.98h-1.34l1.39,.09-.02,1.74-.64,.71,7.45-.35,.2-5.37,.51,.54,3.54,.3,4.05,1.59,4.41,3.44-.29,2.46-1.19,.52,.86,1.97-2.56,1.03,.56,3.32-.47-3.29,4.51-1.8,1.18,2.76-2.11,.92,.65,1.52,3.73-1.6,.75,2.26-2.9,.95,.27,.84,2.89-.96,.55,2.78-1.45,.2-.49,1.58,.55-.44,2.09,.42-.49,1.33-.42,.67-.5,.54,.62-.77-1.08-1.15-.35,.58-2.72,.23-.09-1.08-.92-1.54,.82,2.63-1.18,.06,1.11,.38-2.25,3.74-1.02,.82-.09,.88,.88,1.66,.9,.35-2.46,3.76,2.03-1.93,.52-1.61,.89,.3,.12,1.91-1,3.61-1.91-.51-.67,1.13,2.16,1.28-1.41,1.89-1.17,.31,.26,.37-3.27,.21-1.75-1.74-.42,.72-4.09,2.06-2.06-2.21-.33-1.57,1.14-2.34,2.11-1.73-3.88,2.34,.54,3.14,2.46,2.76-1.57,1.53-.12,1.7,.78,1.7-.27,.69,.52,.15-.19,.61,.56-.39-.17,.87,.89,.51,.39,1.41-.36,.91,.53,1,1.93-.07,.87-.65,.86,1.38,.28,.07,.56-.26-.67,.1-.48-.73,2.41-1.67,1.62,.58,.08,.61-.68,.43,1.4,.08-.64-1.22,1.64-.66,2.19,1.37,.22,1.11-1.19,.28,.67,.34,1.94-1.61,3.86-.37,3.02-3.8,.94-2.23,5.13-2.31,3.7-5.29,3.7-3.04,6.78-7.49,1.4-3.45-.22-.7,1.03-3.42-3.32-3.56-.62-2.12,1.52-2.33-1.65,2.09-.42,1.12,.8,1.81-.93,1.13-1.49-.73-.93-1.79,1.26-.4-.83-.43-.33-1.49,1.73,.02-.06-1.32-1.62,.07,.03-.68,.13-1.09,2.55-.1-.16-3.4,1.1-3.45-1.13-1.77-.42-3.87,2.28-2.81,4.58,.56-4.59-.65-2.45,2.91,.3,3.82-2.21-.62-.21-.74,.93,.05-1.04-.48-.15-1.49,.12-.7,1,.59,.34-.56-1.12-.65,1.17-3.29,1.66,1.01-.72-.49,.3-1.96,4.5,.64,.97-6.96-1.26-1.49-2.42,.3-1.79,3.41-2.33-.71,.82-1.62,.03-.24-.06-.05-.15-.03-1.19,2.97-1.39-.2v-.21l.86-2.29,1.26-.73,.55-1.45,.5,.18,1.53-4.1,.82-.74-1.76-1.5,1.36-3.1,1.02,.49-1.16,2.26h.55l.95-1.77,1.42,1.63-.55,2.2,1.2,2.55-.25,1.51,.4-1.54-1.2-2.58,1.54-3.9-.8-1.11,2.45-.37-.38-.36,.55-1.95,5,1.5-4.59-1.51,.99-4.31,3.33-8.18,.57-.7,4.13,1.76-5.43-2.55,5.14-6.39-4.06-3.98,2.5-1.71,7.36,6.64,1.12-1.21-1.13,1.06-4.83-4.36,5.35-5.71,4.74,4.42-3.84,4.27,3.46-3.71,5.47,5.09,.46-.48,3.86,3.89,1.28-1.34-.82,1.49,7.43,6.93,7.23-7.77,.82,.19,2.06,1.93-3.31,3.55,1.41,1.32,3.75-4.02-3.68-3.04-.02-.54,4.44-4.75,3.62-6.61,.91-.26,2.08-3.51-9.28-8.37,3.68-4.09,8.27,7.48,4.47-4.87,1.37,1.25,.5,1.27-.43-1.41-1.38-1.18,.44-.48-13.58-12.23,.12-3.47,1.68,.27,1.45,1.62,14.22,7.89-1.01,2.81,2.67,.97,.78-2.05,3.31,1.17-.36,3.49,.63,.91-.5-.94,.35-3.46,2.23,.06,.8,1.5-.3,3.62-1.62-.05,5.09,.44,11.47,5.36,2.73,.75,.62,1.24,1.61-.98,9.62,2.38,2.85,3-2.82,2.9,2.95-2.77,2.14,2.77-3.69-4.93,.21-2.32h2.52l-.27-.5h-2.41l-3.59-1.81-.21-2.47,.66-.03,.03-.53,3,.08-.31,1.21-.77,.49-.43,.48,1.52-.62,2.71,1.59,1.21-.98,.29,.3-.62,1.53,1.78,.93-1.75,2.41,1.05,.82,1.47-1.87,2.07,2.08-.89,.9,.93,.94,.77-.77,1.45,.88-4.24,4.06,1.49-1.21,5.29,5.8-1.78,1.61,.47,.13,.77-1.17,1.59,1.73-.44,.4,.09,1-.8,.71-1.72-1.83,2.37,2.61,2.2-1.67,1.12,.35,2.65-1.8,1.8,.71,5.72,4.7,.09-.12-.19-.24-.11-.28v-.56l.67,.61-.52,.13,.35,.43,6.03-.53,1.06-1.36,1.88-.95,4.03-.73,.6,.64-.43,.45,1.45,4.39,2.58,.29-2.54-.39-1.1-3.33,1.68-.57,1.35,.53,.2-.5,1.8,.76,.51,1.65-1.51,.52,4.68-1.38-3.04-10.36,.74-.19,2.72,10.45,1.19,2.57,2.73,3.44,3.02,1.85,.16-.5-3.54-2.12-1.61-2.46,3.55-3.51,4.59-1.74,1.93-.41,4.27,4.97,4.82,.91,1.75-.03-4.98-1-.47-1.86-1.76-.02-1.83-2.21,1.89-.11-.88-.08,.02-1.41-.66-.57,.18-3.49-3.05-.3-.74-.67,.26-1.02,1.14-.27,.03-2.21,5.84-.88,4.98,.56-.05,3.54-3.8,1.58,.95,.86,.81,3.45-.39,.59,.26,1.34,1.04,.95,1.56,.08-.83,1.22,3.65-2.69,4.04-.77,3.38,.38,.04,1.26,.57,.54,4.96-.61,4.39,.82,2.86,1.33,2.31-1.24,1.07-1.93,1.43-9.35-.31-1.69-1.73-1.24-14.02-2.42,.06-.79,1.33,.24,.28-.33-1.34,.09,.21-1.08,1.15-.17v.89l.17-.89,1.69-.26,.13-.51,3.03,.82,2.45,1.48,.15-1.06,.55,.79,5.4,.69,1.7,1.19,5.38,1.81,.02,.54,.07-1.6,.18-.09,.29,1.84,.31-.71,2.63,1.44,.08-.69,1.47,.34,1.1,1.12,.35-.33-.29-.56,1.84,.84,6.52,5.94,.51-.11,.56-1.71,.15,1.92,1.34-1.65-.8,2.33,3.64,1,1.45,1.33-.54,.94,.84-.91,2.74,2.72,2.17,3.03-.29,.31,.9,.66,2.24,4.27-.22,.81,1.27,1.26-.03,1.35-1.14,.58,1.26-.52,.13-1.37-.62-2.04,.72-.43,.41,2.05,1.21,1.22-2.22,1.23,2.35-.92,2.12,3.21,.13,1.78,.86,1.26-.56,.57,1.93-.13,.08,2.83-2.11,.7-.24-.56-24.63,8.07,6.01,20.82,4.12,13.98,21.52-4.01,.98,.9v-.73l-.42-.39,.42-.43V-3.16"/></g></g><ellipse class="cls-7" cx="140.6" cy="162.74" rx="16.45" ry="3.54"/></g><text class="cls-9" transform="translate(168.04 137.09)"><tspan x="0" y="0">蒲郡市</tspan></text><text class="cls-10" transform="translate(269.18 86.52)"><tspan x="0" y="0">豊川市</tspan></text><text class="cls-10" transform="translate(168.82 25.06)"><tspan x="0" y="0">岡崎市</tspan></text><text class="cls-10" transform="translate(35.79 95.86)"><tspan x="0" y="0">幸田町</tspan></text><text class="cls-10" transform="translate(0 212.56)"><tspan x="0" y="0">西尾市</tspan></text><path class="cls-11" d="M128.8,156.48c2.15,6.39,5.66,6.38,7.79-.01l1.76-5.27c2.13-6.39,8.34-14.86,13.8-18.82,0,0,10.77-7.81,10.77-21.06,0-16.37-13.27-29.64-29.64-29.64s-29.64,13.27-29.64,29.64c0,12.72,9.62,20.21,9.62,20.21,5.32,4.14,11.43,12.76,13.58,19.15l1.96,5.81Z"/></g></g></g></g></svg>