<?xml version="1.0" encoding="UTF-8"?>
<svg id="_レイヤー_2" data-name="レイヤー 2" xmlns="http://www.w3.org/2000/svg" width="34.13" height="34.13" viewBox="0 0 34.13 34.13">
  <g id="_レイアウト" data-name="レイアウト">
    <g>
      <circle cx="17.07" cy="17.07" r="17.07" style="fill: #ec6051;"/>
      <g>
        <g>
          <path d="M18.34,16.36l-1.49-4.63c-.15-.59-.69-.97-1.2-.83-.51,.13-.81,.72-.66,1.31l1.02,5.29,.02,.05c.1,.34,.3,.61,.55,.8,.15,.12,.34,.21,.55,.24,.06,0,.13,0,.19,0,0,0,0,0,0,0h.02c.06,0,.12,0,.18,0h.04s1.36-.54,.77-2.22Z" style="fill: #fff;"/>
          <path d="M17.69,18.37s.89-.38,.7-1.27c0,0,0,0,0,0-.15-.19-.33-.34-.53-.44-.17-.09-.37-.14-.58-.14-.06,0-.12,.02-.18,.04,0,0,0,0,0,0h-.02c-.06,.02-.12,.02-.18,.04h-.04s-8.43,3.33-8.43,3.33c-.47,.17-.73,.64-.58,1.05,.07,.2,.24,.35,.44,.43,.2,.08,.45,.09,.69,0l7.53-2.48,1.19-.55Z" style="fill: #fff;"/>
        </g>
        <path d="M5.62,17.15c0-.25,0-.51,.03-.76H2.64c-.02,.25-.02,.5-.02,.76s0,.51,.02,.76h3.01c-.03-.25-.03-.5-.03-.76Z" style="fill: #fff;"/>
        <path d="M16.37,28.62v3.01c.25,.02,.5,.03,.76,.03s.51,0,.76-.03v-3.04h-1.51v.03h0Z" style="fill: #fff;"/>
        <path d="M17.88,5.68V2.67c-.25-.02-.5-.03-.76-.03s-.51,0-.76,.03v3.04h1.51v-.03Z" style="fill: #fff;"/>
        <path d="M31.61,16.39h-3.04v1.52h3.04c.02-.25,.02-.5,.02-.76,0-.25,0-.51-.02-.76Z" style="fill: #fff;"/>
      </g>
    </g>
  </g>
</svg>