<?xml version="1.0" encoding="UTF-8"?>
<svg id="_レイヤー_2" data-name="レイヤー 2" xmlns="http://www.w3.org/2000/svg" width="34.13" height="34.13" viewBox="0 0 34.13 34.13">
  <g id="_レイアウト" data-name="レイアウト">
    <g>
      <circle cx="17.07" cy="17.07" r="17.07" style="fill: #ec6051;"/>
      <g id="_レイヤー_2-2" data-name="レイヤー 2">
        <g id="icon_data" data-name="icon data">
          <path d="M23.89,25.63H10.48c-.38,0-.69-.31-.69-.69V9.96c0-.38,.31-.69,.69-.69h3.13c.38,0,.69,.31,.69,.69s-.31,.69-.69,.69h-2.43v13.59h12.02V10.61c-.26-.1-.45-.35-.45-.65,0-.38,.31-.69,.69-.69h.45c.38,0,.69,.31,.69,.69v14.98c0,.38-.31,.69-.69,.69Z" style="fill: #fff;"/>
          <path d="M19.87,12.44h-5.36c-.88,0-1.59-.71-1.59-1.59v-2.68c0-.38,.31-.69,.69-.69h7.15c.38,0,.69,.31,.69,.69v2.68c0,.88-.71,1.59-1.59,1.59Zm-5.56-3.58v1.99c0,.11,.09,.2,.2,.2h5.36c.11,0,.2-.09,.2-.2v-1.99h-5.76Z" style="fill: #fff;"/>
          <path d="M19.87,19.04h-5.36c-.38,0-.69-.31-.69-.69s.31-.69,.69-.69h5.36c.38,0,.69,.31,.69,.69s-.31,.69-.69,.69Z" style="fill: #fff;"/>
          <path d="M17.19,21.72c-.38,0-.69-.31-.69-.69v-5.36c0-.38,.31-.69,.69-.69s.69,.31,.69,.69v5.36c0,.38-.31,.69-.69,.69Z" style="fill: #fff;"/>
        </g>
      </g>
    </g>
  </g>
</svg>