<?xml version="1.0" encoding="UTF-8"?>
<svg id="_レイヤー_2" data-name="レイヤー 2" xmlns="http://www.w3.org/2000/svg" width="27.31" height="12.64" viewBox="0 0 27.31 12.64">
  <g id="_レイアウト" data-name="レイアウト">
    <path d="M27.31,2.86c0-1.58-1.28-2.86-2.86-2.86H2.29c-.41,0-.78,.27-.91,.66L.16,4.4c-.11,.33-.16,.68-.16,1.03v5.04H3.64s-.01,.09-.01,.14c0,1.12,.91,2.04,2.04,2.04s2.04-.91,2.04-2.04c0-.05-.01-.09-.01-.14h9.95s-.01,.09-.01,.14c0,1.12,.91,2.04,2.04,2.04s2.04-.91,2.04-2.04c0-.05-.01-.09-.01-.14h5.64V2.86ZM4.04,8.06H1.63v-2.65c0-.21,.03-.42,.1-.62L2.83,1.39h1.2v6.67h0Zm5.26-3.32h-3.98V1.39h3.98v3.35Zm5.39,0h-4.12V1.39h4.12v3.35Zm5.39,0h-4.12V1.39h4.12v3.35h0Zm5.6,0h-4.33V1.39h2.8c.84,0,1.53,.69,1.53,1.53v1.82Z" style="fill: #593816;"/>
  </g>
</svg>