<?xml version="1.0" encoding="UTF-8"?>
<svg id="_レイヤー_2" data-name="レイヤー 2" xmlns="http://www.w3.org/2000/svg" width="18.77" height="25.55" viewBox="0 0 18.77 25.55">
  <g id="_レイアウト" data-name="レイアウト">
    <g>
      <path d="M15.05,21.88c-.1,.02-.2,.03-.3,.03h-1.14s0,0,0,0h-.01l.84,.83,.59,.59H3.74s.83-.83,.83-.83l.6-.58h0s-1.15,0-1.15,0c-.1,0-.2-.01-.3-.03l-2.15,2.12-1.57,1.54H0s1.48,0,1.48,0l1.2-1.18h13.41l1.2,1.18h1.48l-3.72-3.66Z" style="fill: #593816;"/>
      <path d="M9.44,0C2.58,0,.61,2.49,.61,4.39v12.38c0,1.52,1.13,2.78,2.59,2.99,.02,.44,.38,.79,.83,.79h1.25c.43,0,.79-.33,.82-.76h6.58c.04,.42,.39,.76,.82,.76h1.25c.44,0,.8-.34,.83-.77,1.52-.16,2.71-1.45,2.71-3.01V4.39c0-1.9-1.98-4.39-8.84-4.39Zm-3.2,2.73h6.4c.43,0,.77,.35,.77,.77s-.35,.77-.77,.77H6.24c-.43,0-.77-.34-.77-.77,0-.43,.34-.77,.77-.77Zm-2.34,13.47c0-.53,.43-.96,.96-.96s.96,.43,.96,.96c0,.53-.43,.96-.96,.96s-.96-.43-.96-.96Zm4.87-4.74H3.64V6.76h5.13v4.69Zm1.35-4.69h5.36v4.69h-5.36V6.76Zm2.95,9.44c0-.53,.43-.96,.96-.96s.96,.43,.96,.96-.43,.96-.96,.96-.96-.43-.96-.96Z" style="fill: #593816;"/>
    </g>
  </g>
</svg>