<?xml version="1.0" encoding="UTF-8"?>
<svg id="_レイヤー_2" data-name="レイヤー 2" xmlns="http://www.w3.org/2000/svg" width="24.76" height="20.74" viewBox="0 0 24.76 20.74">
  <g id="_レイアウト" data-name="レイアウト">
    <path d="M23.14,8.57l-1.51-5.75c-.31-1.64-1.93-2.82-3.87-2.82H7c-1.94,0-3.56,1.18-3.87,2.82l-1.51,5.75c-.96,.46-1.62,1.44-1.62,2.56v3.62c0,1.56,1.28,2.85,2.84,2.85h.81v1.79c0,.74,.6,1.35,1.35,1.35h1.13c.74,0,1.35-.6,1.35-1.35v-1.79h9.81v1.79c0,.74,.6,1.35,1.35,1.35h1.13c.74,0,1.35-.6,1.35-1.35v-1.79h.81c1.56,0,2.84-1.28,2.84-2.85v-3.62c0-1.13-.67-2.11-1.62-2.56ZM4.97,14.61c-.9,0-1.63-.73-1.63-1.63s.73-1.63,1.63-1.63,1.63,.73,1.63,1.63-.73,1.63-1.63,1.63Zm9.61,0h-4.39v-2.27h4.39v2.27ZM4.04,8.29l1.3-4.93,.02-.1c.09-.54,.83-.99,1.64-.99h10.76c.81,0,1.55,.44,1.64,.99l1.32,5.03H4.04Zm15.75,6.32c-.9,0-1.63-.73-1.63-1.63s.73-1.63,1.63-1.63,1.63,.73,1.63,1.63-.73,1.63-1.63,1.63Z" style="fill: #593816;"/>
  </g>
</svg>